<?xml version="1.0" encoding="utf-8"?>
<!DOCTYPE svg PUBLIC "-//W3C//DTD SVG 1.1//EN" "http://www.w3.org/Graphics/SVG/1.1/DTD/svg11.dtd">
<svg version="1.1" id="Layer_1" xmlns="http://www.w3.org/2000/svg" xmlns:xlink="http://www.w3.org/1999/xlink" x="0px" y="0px"
	 width="28px" height="20.809px" viewBox="0 0 28 20.809" enable-background="new 0 0 28 20.809" xml:space="preserve">
<g>
	<path fill="#FFFFFF" d="M28,2.602c0,1.437-1.164,2.601-2.601,2.601H2.601C1.164,5.202,0,4.038,0,2.602l0,0C0,1.164,1.164,0,2.601,0
		h22.798C26.836,0,28,1.164,28,2.602L28,2.602z"/>
	<path fill="#FFFFFF" d="M28,10.404c0,1.437-1.164,2.602-2.601,2.602H2.601C1.164,13.006,0,11.841,0,10.404l0,0
		c0-1.437,1.164-2.601,2.601-2.601h22.798C26.836,7.804,28,8.968,28,10.404L28,10.404z"/>
	<path fill="#FFFFFF" d="M28,18.207c0,1.438-1.164,2.602-2.601,2.602H2.601C1.164,20.809,0,19.645,0,18.207l0,0
		c0-1.437,1.164-2.601,2.601-2.601h22.798C26.836,15.606,28,16.771,28,18.207L28,18.207z"/>
</g>
</svg>
