<?xml version="1.0" encoding="utf-8"?>
<!DOCTYPE svg PUBLIC "-//W3C//DTD SVG 1.1//EN" "http://www.w3.org/Graphics/SVG/1.1/DTD/svg11.dtd">
<svg version="1.1" id="Layer_2" xmlns="http://www.w3.org/2000/svg" xmlns:xlink="http://www.w3.org/1999/xlink" x="0px" y="0px"
	 width="83px" height="62px" viewBox="0 0 83 62" enable-background="new 0 0 83 62" xml:space="preserve">
<defs>
	<filter id="dropshadow" height="130%">
		<feOffset dx="-1" dy="2" in="SourceAlpha" result="offsetblur"/>
		<feGaussianBlur result="blurOut" in="offOut" stdDeviation="1"/> 
		<feComponentTransfer>
			<feFuncA type="linear" slope="0.125"/>
		</feComponentTransfer>
		<feMerge> 
			<feMergeNode/>
			<feMergeNode in="SourceGraphic"/> 
		</feMerge>
	</filter>
</defs>
<g filter="url(#dropshadow)">
<g>
	<path fill="#FFFFFF" d="M9.12,29.267c0,0,0.328,0.078,0.677,0.078c0.347,0,2.047-0.116,3.591-0.503
		c1.545-0.386,3.515-0.945,4.741-1.718c1.226-0.772,3.843-3.013,5.31-4.654c1.468-1.641,4.018-4.653,4.857-6.604
		S29.31,13.221,29,11.55c-0.309-1.67-1.583-2.597-1.97-2.819c-0.386-0.222-1.367-0.371-2.332-0.371
		c-2.751,0-6.111,1.332-9.355,4.287c-3.243,2.954-5.229,5.788-7.313,8.896c-2.086,3.109-3.959,8.207-4.422,9.945
		c-0.463,1.737-0.932,5.068,0,7.733c0.932,2.664,3.061,3.041,4.683,3.041s4.258-0.203,6.561-3.085
		c-0.564,0.941-1.086,1.681-1.361,2.085c-0.275,0.406-2.882,4.013-3.375,4.794c-0.491,0.782-2.143,3.737-2.605,4.736
		c-0.464,0.999-0.515,1.122-0.536,1.181c-0.022,0.058-0.195,0.521,0.195,0.724s1.188,0.572,2.824,0.615
		c1.636,0.044,2.433-0.072,2.592-0.115c0.159-0.044,0.355-0.08,0.42-0.638c0.065-0.558,0.723-2.593,1.186-3.548
		c0.464-0.956,1.668-3.859,2.291-5.265c0.622-1.404,1.926-4.243,2.136-4.692s1.55-3.229,2.057-3.946s1.453-1.979,2.254-2.849
		c0.802-0.868,1.863-2.018,2.086-3.302c0.223-1.283,0.174-1.699-0.84-2.173c-1.014-0.473-2.019,0.58-2.327,0.899
		c-0.309,0.317-1.313,1.718-1.661,2.152c-0.347,0.435-1.911,2.703-3.774,4.557c-1.863,1.854-3.621,2.598-5.233,2.598
		c-1.719,0-2.926-1.158-3.205-2.684c-0.28-1.526,0.077-3.004,0.482-3.872C8.859,29.566,9.12,29.267,9.12,29.267z M11.593,24.034
		c0.405-0.637,2.635-3.987,4.171-5.837c1.534-1.849,3.649-3.896,4.875-4.774c1.227-0.878,2.983-1.795,3.93-1.795
		s1.497,0.753,1.497,1.535s-0.646,1.883-0.918,2.375c-0.27,0.492-1.342,1.979-3.571,4.2c-2.23,2.221-4.684,3.417-6.257,4.112
		c-1.574,0.695-3.061,0.918-4.171,0.918C11.148,24.769,11.187,24.672,11.593,24.034z"/>
</g>
<g>
	<path fill="#FFFFFF" d="M41.232,23.127c-0.789-0.289-1.229-0.231-1.65-1.043c0.244-0.521,0.716-2.896,0.632-3.852
		c-0.083-0.956-0.551-3.823-3.809-3.823c-1.072,0-3.451,0.521-6.393,4.257c-3.02,3.737-2.064,6.909-1.788,7.676
		c0.278,0.769,0.754,2.274,3.709,2.274c2.956,0,5.306-2.563,5.794-3.2c0.485-0.638,1.117-1.681,1.117-1.681s0.574,0.551,2.352,0.261
		C41.819,23.808,42.025,23.416,41.232,23.127z M36.497,23.099c-0.605,0.535-1.566,1.824-3.604,1.824s-2.228-1.824-1.997-2.97
		c0.229-1.143,1.163-3.099,2.205-4.315c1.032-1.216,2.199-1.665,3.064-1.665c0.866,0,1.291,0.333,1.291,0.333
		c-0.437,0.623-1.303,2.173-1.268,3.679c0.039,1.506,1.06,2.027,1.06,2.027S37.101,22.562,36.497,23.099z"/>
</g>
<g>
	<path fill="#FFFFFF" d="M54.359,22.664c-0.789-0.29-1.229-0.232-1.65-1.043c0.244-0.521,0.716-2.896,0.631-3.853
		c-0.083-0.956-0.55-3.823-3.808-3.823c-1.073,0-3.451,0.521-6.393,4.258c-3.02,3.736-2.064,6.908-1.788,7.676
		c0.278,0.768,0.753,2.273,3.709,2.273c2.955,0,5.306-2.562,5.794-3.2c0.485-0.638,1.117-1.68,1.117-1.68s0.574,0.55,2.351,0.26
		C54.945,23.345,55.152,22.954,54.359,22.664z M49.624,22.635c-0.605,0.535-1.566,1.824-3.604,1.824s-2.228-1.824-1.998-2.969
		c0.23-1.144,1.164-3.099,2.205-4.315c1.033-1.217,2.199-1.665,3.065-1.665c0.865,0,1.291,0.333,1.291,0.333
		c-0.437,0.623-1.304,2.172-1.269,3.679c0.04,1.506,1.061,2.027,1.061,2.027S50.228,22.099,49.624,22.635z"/>
</g>
<g>
	<path fill="#FFFFFF" d="M71.176,6.849c1.534-2.983,2.389-4.388,2.519-4.591c0.129-0.203,0.428-0.869-0.215-1.26
		c-0.64-0.392-1.904-0.898-2.194-0.985c-0.29-0.086-0.795-0.058-1.187,0.667c-0.393,0.724-0.768,1.521-1.092,2.23
		c-0.326,0.709-1.564,3.735-2.004,5.155c-0.441,1.42-0.904,3.49-0.996,4.272c-0.091,0.781-0.331,2.244-0.303,2.36
		c-0.177-0.289-1.085-1.404-2.67-1.404c-0.996,0-3.031,0.332-4.478,1.39c-1.454,1.058-3.856,3.07-4.583,5.88
		c-0.731,2.81,0.139,4.794,0.906,5.504c0.771,0.71,2.09,1.68,4.359,1.071c2.264-0.608,3.537-1.448,3.877-1.752
		c0.339-0.305,1.44-1.579,1.711-2.173c-0.065,0.564,0.304,1.854,0.706,2.376c0.403,0.521,1.074,1.114,2.334,1.114
		c1.261,0,2.926-1.288,3.083-2.839c0.158-1.549-0.795-1.477-0.867-1.477c-0.071,0-0.622,0.188-0.678,0.725
		c-0.057,0.535,0.438,0.752,0.597,0.607s-0.176,0.725-0.599,0.913c-0.424,0.188-1.113,0.434-1.492-0.333
		c-0.376-0.769-0.214-2.115-0.219-2.593s0.147-3.664,0.575-5.75C68.693,13.873,69.623,9.832,71.176,6.849z M63.542,20.752
		c-0.891,1.332-2.022,3.187-4.181,3.187c-2.157,0-2.45-1.666-2.343-2.463c0.107-0.796,0.752-2.823,2.037-4.388
		c1.278-1.563,2.449-2.129,3.548-2.129c0.464,0,1.222,0.145,1.829,1.202C65.042,17.218,64.428,19.42,63.542,20.752z"/>
</g>
<g>
	<path fill="#FFFFFF" d="M50.492,31.496c-1.015-1.1-2.646-1.554-4.22-1.554c-1.573,0-4.335,0.868-6.517,2.26
		c-2.183,1.39-3.052,2.298-4.325,3.224c-1.274,0.928-3.119,2.434-5.919,3.688s-3.774-0.038-3.774-0.869
		c0-0.83,0.617-1.805,1.911-2.172c1.681-0.405,1.681-0.077,2.539-0.271c0.859-0.193,1.883-0.579,2.491-1.226
		c0.608-0.647,0.84-1.353,0.328-2.298c-0.512-0.946-2.223-1.023-2.559-1.023c-1.317,0-3.505,1.231-5.475,2.767
		s-2.91,3.171-2.91,4.156c0,0.984,0.304,1.535,0.622,1.911c0.318,0.377,1.188,1.029,1.694,1.261s1.738,0.579,2.463,0.579
		c0.724,0,2.1-0.348,3.605-1.202s4.287-2.404,4.417-2.549c-0.058,0.275-0.13,0.594-0.218,0.984c-0.086,0.391-0.246,1.13-0.419,1.869
		c-0.175,0.738-0.652,2.505-1.058,3.489c-0.405,0.986-1.217,2.462-1.217,2.462s-1.115-0.245-2.635-0.245
		c-1.521,0-4.331,0.868-5.576,1.65c-1.246,0.782-2.404,2.419-2.94,4.156c-0.535,1.738-0.492,3.375,0.116,4.707
		s2.926,1.955,4.33,1.651c1.405-0.305,2.317-0.768,3.374-1.868c0,0,0.406-0.415,0.706-0.734c0.298-0.318,2.258-2.626,2.992-3.948
		c0.734-1.323,1.922-3.456,2.857-6.382c0.938-2.926,1.333-4.21,1.487-4.838c0.154-0.627,0.425-2.298,0.474-3.099
		c0.048-0.803,0.058-1.41,0.058-1.41s1.014-0.772,1.767-1.188c0.753-0.415,1.835-0.984,2.433-1.274
		c0.599-0.289,1.604-0.791,2.588-0.791c0.985,0,1.612,0.318,2.104,0.656c0.493,0.338,0.947,1.081,1.709,1.419
		c0.763,0.338,2.086,0.387,2.916-0.502C51.544,34.056,51.506,32.598,50.492,31.496z M28.093,53.501
		c-0.859,1.062-1.883,1.572-2.559,1.572c-1.438,0-1.689-1.438-1.689-2.8c0-1.36,1.004-2.52,2.191-3.233
		c1.188-0.715,3.061-1.005,3.862-1.005c0.801,0,1.448,0.193,1.448,0.193S28.952,52.438,28.093,53.501z"/>
</g>
<g>
	<path fill="#FFFFFF" d="M38.906,44.675c-0.169,0.483-0.695,2.018-0.995,2.857c-0.299,0.84-1.1,3.679-1.148,4.634
		c-0.048,0.955,0.087,1.884,1.072,2.646c0.984,0.764,2.094,0.946,2.867,0.946c0.772,0,1.708-0.589,2.027-0.753
		c0.318-0.164,0.897-0.511,1.023-0.599c0.125-0.086,0.318-0.55,0.318-0.82s-0.309-0.241-0.521-0.145
		c-0.212,0.097-0.424,0.279-0.811,0.492s-0.812,0.646-1.835,0.646s-1.399-0.801-1.468-1.438c-0.066-0.638,0.106-1.169,0.213-1.526
		s0.724-2.307,1.062-3.292c0.338-0.985,0.927-2.434,1.062-2.781s0.29-0.917-0.126-1.053c-0.415-0.135-1.332-0.396-1.631-0.463
		C39.717,43.96,39.172,43.913,38.906,44.675z"/>
	<path fill="#FFFFFF" d="M40.614,39.673c-0.121,0.353-0.724,2.211-0.801,2.501c-0.077,0.289-0.145,0.792,0.4,0.927
		c0.546,0.135,1.328,0.271,1.646,0.309c0.319,0.039,0.55-0.029,0.715-0.608c0.164-0.579,0.646-2.684,0.695-2.925
		c0.048-0.241,0.076-0.551-0.464-0.599c-0.541-0.049-1.188-0.136-1.438-0.155C41.117,39.104,40.759,39.261,40.614,39.673z"/>
</g>
<path fill="#FFFFFF" d="M43.501,50.209c-0.076,0.33-1.077,4.654-1.153,4.995c-0.075,0.341-0.061,0.613,0.495,0.582
	c0.556-0.03,2.212-0.122,2.6-0.144c0.389-0.021,0.55-0.136,0.621-0.928c0.072-0.793,0.208-1.947,0.37-2.629s0.517-2.068,1.167-3.051
	c0.649-0.982,2.046-2.542,3.073-2.599c1.027-0.058,1.133,0.525,0.96,1.093c-0.174,0.566-0.67,1.677-0.957,2.187
	c-0.287,0.511-0.886,1.858-1.091,2.512c-0.206,0.652-0.426,1.632-0.397,2.135s0.23,0.923,0.849,0.889s2.107-0.105,2.442-0.125
	c0.336-0.019,0.61-0.18,0.726-1.144c0.115-0.963,0.304-3.056,0.581-3.943c0.276-0.889,0.787-1.916,1.268-2.542
	c0.481-0.626,1.335-1.535,2.037-1.574s0.842,0.206,0.864,0.604c0.022,0.397-0.585,2.156-0.72,2.574
	c-0.135,0.417-1.115,2.647-1.059,3.665c0.057,1.017,0.667,1.413,1.567,1.532c0.9,0.118,1.821,0.046,2.819-0.355
	c0.997-0.403,2.324-0.949,3.211-1.829s1.33-1.619,1.041-2.082c-0.288-0.462-1.217,0.241-1.498,0.478s-0.587,0.568-0.795,0.79
	c-0.209,0.222-0.756,0.632-1.354,0.664c-0.598,0.033-1.104-0.181-1.149-1.009c-0.046-0.827,0.507-1.857,0.866-2.582
	s0.982-1.811,0.953-2.355c-0.03-0.545,0.164-1.775-1.927-2.312s-3.333,0.573-4.944,1.861c-0.126-0.561-1.231-1.919-2.961-1.823
	s-3.206,1.345-4.062,2.412c-0.031-0.557-0.508-1.581-1.001-2.132s-1.135-0.558-1.229-0.553s-0.364-0.105-0.513,0.438
	c-0.148,0.545-0.531,1.796-0.725,2.479S43.501,50.209,43.501,50.209z"/>
<g>
	<path fill="#FFFFFF" d="M74.167,49.062c-0.172-0.153,0.15-0.865-0.066-0.789c-0.216,0.075-1.004,0.83-1.231,1.086
		c-0.227,0.254-1.22,1.437-1.57,1.731c-0.352,0.294-1.286,1.043-2.513,1.113c-1.227,0.071-1.938-0.383-2.156-0.736
		c-0.16-0.261-0.118-1.318-0.071-1.405c0.283-0.017,1.242-0.346,2.047-0.614c0.804-0.267,1.155-0.384,1.893-0.726
		s1.657-0.795,2.401-1.732c0.745-0.937,0.544-2.408,0.343-2.975c-0.201-0.567-0.974-1.185-2.044-1.333
		c-1.071-0.147-3.406,0.198-4.578,1.034c-1.171,0.836-2.12,1.701-2.816,3.466c-0.696,1.766-0.695,1.97-0.695,1.97
		c-0.151,0.646-0.669,3.315,0.451,4.134s3.123,0.902,3.783,0.863c0.661-0.038,2.706-0.483,3.765-1.46
		c1.058-0.977,1.751-2.078,2.48-2.373S74.339,49.215,74.167,49.062z M67.974,45.646c0.795-1.339,1.714-1.445,2.154-1.471
		c0.439-0.025,0.998,0.521,0.886,1.483c-0.112,0.964-1.12,1.896-1.963,2.238c-0.843,0.344-2.175,0.758-2.175,0.758
		S67.179,46.986,67.974,45.646z"/>
</g>
<path fill="#FFFFFF" d="M75.288,47.651c-0.27,0.016-1.146,0.396-1.572,1.068c-0.425,0.673-0.18,2.235-0.093,2.723
	c0.087,0.489,0.323,1.741,1.661,2.456c1.338,0.717,3.055,1.148,5.233-0.487c2.178-1.635,2.331-3.811,2.04-5.147
	c-0.29-1.338-1.488-2.477-2.26-3.283c-0.772-0.806-0.901-1.853-0.938-2.47c-0.035-0.617,0.314-1.585,0.415-1.853
	c0.101-0.266,0.279-1.012-0.642-0.707c-0.92,0.306-2.903,1.117-3.234,1.252c-0.33,0.136-0.646,0.541-0.708,0.961
	c-0.062,0.419-0.128,1.109-0.11,1.428c0.019,0.318,0.241,1.484,0.859,2.3c0.617,0.815,1.289,1.057,1.711,1.486
	c0.422,0.431,1.051,0.936,1.147,2.593c0.097,1.658-0.951,2.28-1.654,2.321c-0.704,0.041-1.337,0.126-1.962-0.65
	c-0.506-0.715-0.449-1.231-0.449-1.231s0.152,0.456,0.865,0.415c0.714-0.042,1.455-0.588,1.402-1.504
	C76.947,48.406,76.339,47.59,75.288,47.651z"/>
</g>
</svg>
