<?xml version="1.0" encoding="utf-8"?>
<!DOCTYPE svg PUBLIC "-//W3C//DTD SVG 1.1//EN" "http://www.w3.org/Graphics/SVG/1.1/DTD/svg11.dtd">
<svg version="1.1" xmlns="http://www.w3.org/2000/svg" xmlns:xlink="http://www.w3.org/1999/xlink" x="0px" y="0px"
	 width="146.642px" height="90px" viewBox="0 0 146.642 90" enable-background="new 0 0 146.642 90" xml:space="preserve">
<g id="Layer_1">
	<g>
		<g>
			<path fill="#126233" d="M9.229,44.677c0,0,0.5,0.119,1.031,0.119c0.53,0,3.123-0.177,5.479-0.766
				c2.357-0.59,5.361-1.443,7.231-2.622c1.87-1.178,5.862-4.595,8.1-7.099c2.239-2.503,6.128-7.099,7.409-10.074
				c1.281-2.976,1.546-4.036,1.074-6.583c-0.471-2.547-2.415-3.961-3.004-4.301c-0.59-0.339-2.085-0.567-3.558-0.567
				c-4.196,0-9.322,2.033-14.271,6.54c-4.948,4.506-7.975,8.829-11.156,13.571c-3.182,4.743-6.04,12.519-6.746,15.17
				c-0.707,2.651-1.421,7.731,0,11.797S5.487,64.5,7.962,64.5s6.495-0.309,10.007-4.705c-0.861,1.438-1.657,2.563-2.076,3.181
				c-0.42,0.619-4.397,6.121-5.148,7.313c-0.75,1.192-3.27,5.699-3.976,7.224c-0.707,1.525-0.785,1.713-0.817,1.8
				c-0.034,0.09-0.297,0.796,0.298,1.105s1.812,0.872,4.308,0.939c2.496,0.065,3.711-0.11,3.954-0.178
				c0.243-0.065,0.541-0.121,0.64-0.973c0.099-0.85,1.102-3.953,1.808-5.411c0.707-1.459,2.544-5.888,3.495-8.031
				c0.95-2.143,2.938-6.473,3.258-7.157c0.32-0.686,2.365-4.926,3.138-6.021c0.773-1.092,2.217-3.019,3.438-4.345
				c1.223-1.325,2.843-3.077,3.181-5.036c0.34-1.958,0.266-2.593-1.281-3.315c-1.546-0.721-3.079,0.884-3.55,1.371
				c-0.471,0.485-2.002,2.621-2.534,3.284c-0.529,0.662-2.915,4.124-5.757,6.951c-2.843,2.828-5.524,3.962-7.983,3.962
				c-2.622,0-4.462-1.767-4.89-4.094s0.118-4.581,0.736-5.906C8.831,45.134,9.229,44.677,9.229,44.677z M13,36.695
				c0.618-0.972,4.021-6.083,6.362-8.903c2.341-2.82,5.568-5.942,7.438-7.283c1.87-1.339,4.551-2.739,5.995-2.739
				c1.443,0,2.282,1.149,2.282,2.341c0,1.193-0.986,2.873-1.399,3.623c-0.412,0.752-2.047,3.019-5.449,6.407
				c-3.402,3.388-7.143,5.214-9.543,6.274c-2.401,1.06-4.67,1.4-6.362,1.4C12.323,37.815,12.381,37.667,13,36.695z"/>
		</g>
		<g>
			<path fill="#126233" d="M58.214,35.311c-1.205-0.441-1.875-0.354-2.518-1.591c0.371-0.795,1.092-4.418,0.962-5.876
				c-0.126-1.458-0.839-5.832-5.809-5.832c-1.636,0-5.265,0.795-9.751,6.495c-4.606,5.7-3.148,10.538-2.729,11.708
				c0.426,1.171,1.15,3.468,5.659,3.468s8.093-3.91,8.838-4.881c0.74-0.973,1.704-2.564,1.704-2.564s0.876,0.84,3.587,0.398
				C59.108,36.35,59.422,35.753,58.214,35.311z M50.99,35.267c-0.925,0.817-2.39,2.784-5.498,2.784s-3.398-2.784-3.047-4.529
				c0.35-1.744,1.774-4.727,3.365-6.582c1.574-1.856,3.354-2.541,4.676-2.541c1.319,0,1.967,0.508,1.967,0.508
				c-0.664,0.949-1.986,3.313-1.934,5.611c0.06,2.297,1.617,3.092,1.617,3.092S51.911,34.449,50.99,35.267z"/>
		</g>
		<g>
			<path fill="#126233" d="M78.238,34.605c-1.205-0.443-1.875-0.355-2.52-1.591c0.373-0.796,1.093-4.419,0.964-5.877
				c-0.127-1.458-0.84-5.832-5.81-5.832c-1.637,0-5.265,0.795-9.752,6.494c-4.604,5.7-3.147,10.539-2.727,11.709
				c0.425,1.171,1.149,3.47,5.657,3.47s8.095-3.911,8.839-4.884c0.741-0.973,1.703-2.562,1.703-2.562s0.877,0.84,3.587,0.397
				C79.131,35.644,79.446,35.046,78.238,34.605z M71.015,34.561c-0.924,0.816-2.391,2.783-5.498,2.783
				c-3.105,0-3.397-2.783-3.047-4.528c0.35-1.746,1.774-4.727,3.363-6.584c1.576-1.855,3.354-2.54,4.676-2.54
				c1.32,0,1.969,0.507,1.969,0.507c-0.665,0.951-1.988,3.313-1.935,5.612c0.061,2.298,1.617,3.093,1.617,3.093
				S71.935,33.743,71.015,34.561z"/>
		</g>
		<g>
			<path fill="#126233" d="M103.889,10.48c2.341-4.551,3.643-6.693,3.843-7.003c0.196-0.31,0.651-1.326-0.327-1.922
				c-0.977-0.597-2.906-1.37-3.349-1.502c-0.441-0.132-1.212-0.088-1.81,1.017c-0.6,1.104-1.172,2.319-1.666,3.401
				c-0.498,1.083-2.386,5.698-3.056,7.864c-0.673,2.166-1.381,5.325-1.52,6.517c-0.139,1.193-0.506,3.424-0.463,3.601
				c-0.271-0.441-1.654-2.143-4.072-2.143c-1.52,0-4.623,0.508-6.831,2.121c-2.217,1.613-5.881,4.684-6.99,8.97
				c-1.115,4.286,0.211,7.312,1.383,8.395c1.175,1.083,3.187,2.563,6.649,1.635c3.452-0.928,5.396-2.208,5.914-2.673
				c0.518-0.464,2.198-2.407,2.609-3.313c-0.1,0.861,0.465,2.828,1.077,3.624c0.615,0.794,1.64,1.701,3.561,1.701
				c1.924,0,4.464-1.966,4.704-4.33c0.241-2.364-1.213-2.253-1.322-2.253c-0.11,0-0.95,0.287-1.035,1.104
				c-0.088,0.818,0.668,1.149,0.91,0.928c0.242-0.221-0.268,1.105-0.914,1.393c-0.646,0.287-1.698,0.663-2.274-0.508
				c-0.574-1.171-0.328-3.226-0.335-3.954c-0.007-0.729,0.225-5.589,0.879-8.771C100.103,21.194,101.521,15.031,103.889,10.48z
				 M92.245,31.688c-1.358,2.032-3.085,4.861-6.377,4.861c-3.293,0-3.738-2.542-3.575-3.756c0.164-1.215,1.146-4.308,3.107-6.694
				c1.95-2.385,3.737-3.248,5.413-3.248c0.707,0,1.863,0.222,2.789,1.834C94.532,26.298,93.596,29.656,92.245,31.688z"/>
		</g>
		<g>
			<path fill="#126233" d="M72.337,48.078c-1.546-1.678-4.034-2.371-6.435-2.371c-2.401,0-6.613,1.325-9.942,3.447
				c-3.328,2.119-4.654,3.506-6.598,4.919c-1.944,1.415-4.757,3.711-9.028,5.625c-4.271,1.916-5.758-0.058-5.758-1.324
				s0.942-2.753,2.917-3.313c2.562-0.619,2.562-0.118,3.873-0.413c1.311-0.295,2.873-0.884,3.799-1.87
				c0.929-0.987,1.282-2.062,0.502-3.505c-0.781-1.444-3.391-1.561-3.903-1.561c-2.009,0-5.346,1.878-8.35,4.219
				c-3.005,2.344-4.44,4.839-4.44,6.341c0,1.503,0.463,2.342,0.95,2.917c0.485,0.573,1.81,1.568,2.584,1.922
				c0.773,0.353,2.651,0.883,3.755,0.883c1.104,0,3.204-0.53,5.5-1.832c2.297-1.305,6.539-3.668,6.738-3.89
				c-0.089,0.42-0.199,0.906-0.332,1.503c-0.132,0.596-0.376,1.723-0.64,2.85c-0.266,1.127-0.995,3.82-1.613,5.323
				c-0.619,1.504-1.856,3.756-1.856,3.756s-1.701-0.375-4.021-0.375s-6.605,1.325-8.505,2.519c-1.9,1.194-3.667,3.688-4.485,6.34
				c-0.817,2.651-0.751,5.147,0.177,7.181c0.927,2.031,4.462,2.981,6.606,2.519c2.143-0.465,3.534-1.171,5.146-2.85
				c0,0,0.62-0.633,1.076-1.119c0.456-0.487,3.446-4.007,4.565-6.024c1.12-2.017,2.931-5.272,4.359-9.735s2.032-6.422,2.268-7.379
				s0.648-3.505,0.722-4.729c0.074-1.224,0.089-2.15,0.089-2.15s1.547-1.178,2.695-1.812c1.148-0.633,2.799-1.502,3.711-1.944
				c0.913-0.441,2.445-1.207,3.948-1.207c1.501,0,2.459,0.485,3.209,1.001c0.753,0.515,1.444,1.649,2.607,2.165
				c1.164,0.516,3.182,0.59,4.447-0.766C73.942,51.982,73.884,49.756,72.337,48.078z M38.17,81.644
				c-1.312,1.619-2.872,2.399-3.903,2.399c-2.194,0-2.578-2.193-2.578-4.271s1.532-3.845,3.343-4.934
				c1.812-1.09,4.669-1.531,5.892-1.531c1.222,0,2.209,0.295,2.209,0.295S39.479,80.024,38.17,81.644z"/>
		</g>
		<g>
			<path fill="#126233" d="M54.665,68.18c-0.258,0.738-1.061,3.077-1.518,4.358c-0.456,1.283-1.679,5.612-1.753,7.069
				c-0.072,1.457,0.133,2.874,1.636,4.036c1.501,1.164,3.194,1.442,4.374,1.442c1.179,0,2.605-0.896,3.092-1.148
				c0.486-0.25,1.37-0.779,1.562-0.912c0.19-0.132,0.486-0.84,0.486-1.253c0-0.411-0.472-0.366-0.795-0.22
				c-0.324,0.148-0.648,0.427-1.238,0.751c-0.589,0.325-1.237,0.986-2.798,0.986c-1.562,0-2.136-1.223-2.239-2.193
				c-0.103-0.973,0.163-1.784,0.324-2.329c0.162-0.543,1.105-3.518,1.621-5.021s1.413-3.712,1.619-4.242s0.442-1.399-0.191-1.606
				c-0.633-0.205-2.031-0.603-2.488-0.705C55.901,67.089,55.07,67.018,54.665,68.18z"/>
			<path fill="#126233" d="M57.271,60.55c-0.187,0.537-1.104,3.373-1.224,3.815c-0.117,0.442-0.22,1.207,0.612,1.414
				c0.832,0.206,2.024,0.411,2.511,0.471c0.486,0.059,0.839-0.045,1.09-0.929c0.25-0.883,0.986-4.094,1.062-4.461
				c0.073-0.369,0.117-0.84-0.708-0.913c-0.825-0.075-1.812-0.207-2.195-0.236C58.038,59.682,57.491,59.921,57.271,60.55z"/>
		</g>
		<path fill="#126233" d="M61.674,76.622c-0.115,0.505-1.644,7.101-1.759,7.621c-0.116,0.52-0.093,0.935,0.755,0.888
			c0.847-0.046,3.374-0.188,3.965-0.22c0.593-0.032,0.84-0.207,0.948-1.414c0.11-1.21,0.316-2.97,0.564-4.01
			c0.247-1.041,0.787-3.156,1.779-4.654c0.991-1.499,3.121-3.879,4.688-3.966c1.566-0.086,1.729,0.802,1.464,1.668
			c-0.265,0.865-1.021,2.558-1.46,3.337c-0.438,0.777-1.35,2.833-1.663,3.83c-0.315,0.994-0.649,2.49-0.607,3.256
			c0.044,0.768,0.352,1.408,1.295,1.355c0.943-0.052,3.216-0.16,3.727-0.19c0.512-0.028,0.932-0.274,1.106-1.743
			c0.176-1.471,0.463-4.662,0.885-6.016c0.422-1.355,1.202-2.923,1.936-3.878c0.733-0.954,2.036-2.341,3.106-2.401
			c1.071-0.06,1.285,0.314,1.318,0.922c0.034,0.607-0.893,3.29-1.097,3.926c-0.207,0.638-1.702,4.039-1.616,5.592
			c0.086,1.552,1.019,2.156,2.392,2.337s2.779,0.07,4.3-0.542c1.522-0.613,3.545-1.448,4.898-2.789
			c1.354-1.344,2.028-2.471,1.588-3.176c-0.439-0.706-1.856,0.366-2.284,0.728c-0.43,0.361-0.896,0.866-1.214,1.205
			c-0.317,0.338-1.152,0.964-2.064,1.014s-1.684-0.276-1.753-1.54c-0.07-1.262,0.773-2.832,1.321-3.938
			c0.548-1.106,1.499-2.763,1.453-3.593c-0.046-0.833,0.251-2.71-2.938-3.527c-3.188-0.817-5.083,0.874-7.541,2.84
			c-0.192-0.855-1.879-2.928-4.519-2.781c-2.638,0.146-4.889,2.05-6.195,3.679c-0.047-0.849-0.774-2.411-1.526-3.252
			c-0.753-0.841-1.731-0.852-1.875-0.843c-0.145,0.008-0.556-0.161-0.782,0.67c-0.226,0.829-0.81,2.738-1.105,3.782
			C62.867,71.839,61.674,76.622,61.674,76.622z"/>
		<g>
			<path fill="#126233" d="M108.452,74.873c-0.262-0.232,0.229-1.318-0.101-1.203c-0.331,0.115-1.532,1.267-1.879,1.657
				c-0.347,0.389-1.86,2.191-2.396,2.642c-0.536,0.448-1.962,1.59-3.834,1.697c-1.87,0.109-2.956-0.585-3.289-1.124
				c-0.244-0.396-0.18-2.01-0.109-2.143c0.433-0.025,1.896-0.526,3.123-0.936c1.228-0.408,1.763-0.588,2.887-1.108
				c1.125-0.521,2.528-1.213,3.665-2.641c1.136-1.43,0.829-3.675,0.522-4.539c-0.307-0.866-1.485-1.808-3.118-2.033
				c-1.634-0.226-5.197,0.303-6.983,1.577c-1.787,1.275-3.234,2.595-4.297,5.286c-1.062,2.693-1.06,3.005-1.06,3.005
				c-0.232,0.986-1.021,5.058,0.688,6.307s4.764,1.375,5.771,1.316c1.007-0.058,4.128-0.736,5.742-2.228
				c1.613-1.49,2.671-3.169,3.784-3.619C108.681,76.336,108.714,75.106,108.452,74.873z M99.004,69.664
				c1.214-2.044,2.615-2.206,3.287-2.244c0.671-0.039,1.522,0.794,1.352,2.263c-0.173,1.471-1.71,2.892-2.995,3.415
				c-1.284,0.522-3.316,1.155-3.316,1.155S97.791,71.707,99.004,69.664z"/>
		</g>
		<path fill="#126233" d="M110.163,72.721c-0.412,0.024-1.75,0.604-2.399,1.63c-0.648,1.026-0.273,3.409-0.142,4.153
			c0.133,0.746,0.494,2.657,2.534,3.746c2.041,1.092,4.661,1.752,7.982-0.743c3.322-2.495,3.557-5.813,3.113-7.853
			c-0.442-2.041-2.271-3.777-3.448-5.008c-1.178-1.229-1.373-2.826-1.429-3.767c-0.054-0.942,0.479-2.419,0.632-2.826
			c0.153-0.406,0.426-1.545-0.979-1.079c-1.402,0.466-4.429,1.704-4.934,1.909c-0.504,0.207-0.984,0.825-1.08,1.466
			c-0.095,0.64-0.195,1.693-0.168,2.178c0.028,0.486,0.367,2.266,1.31,3.509c0.943,1.243,1.968,1.612,2.61,2.269
			c0.645,0.655,1.603,1.425,1.751,3.955c0.146,2.529-1.451,3.478-2.523,3.539c-1.074,0.063-2.04,0.192-2.993-0.991
			c-0.771-1.091-0.686-1.878-0.686-1.878s0.232,0.695,1.32,0.632c1.088-0.062,2.22-0.897,2.139-2.293
			C112.693,73.873,111.765,72.628,110.163,72.721z"/>
	</g>
	<path fill="#126233" d="M127.459,55.561c2.145-0.587,5.409,0.064,6.238,3.039c0.827,2.975-1.316,7.585-5.502,8.66
		c-4.185,1.076-6.201-1.212-6.841-3.275C120.715,61.919,122.252,56.989,127.459,55.561z"/>
	<path fill="#126233" d="M131.05,51.793c0.72-0.09,1.117-0.013,0.967-1.378c-0.153-1.364,0.011-6.452,2.376-10.784
		c2.363-4.331,7.462-11.429,9.693-16.087c2.23-4.658,3.239-8.023,2.056-12.507c-1.183-4.483-5.515-12.204-21.064-9.394
		c-15.553,2.81-16.774,16.345-15.389,20.363c1.385,4.019,4.187,7.714,7.371,9.406c1.066,0.432,1.484,0.622,1.752,0.721
		c0.266,0.098,1.028,0.521,1.841-0.584c0.812-1.108,3.69-4.914,4.176-5.524c0.487-0.612,0.54-0.983-0.354-1.405
		c-0.895-0.423-4.687-2.041-5.644-6.325c-0.957-4.285,0.098-11.607,6.911-13.01c6.816-1.404,8.768,3.297,9.805,7.412
		s-0.046,7.856-2.946,13.331c-2.901,5.474-4.566,8.905-5.973,12.202c-1.407,3.297-2.722,8.958-2.621,12.652
		c0.023,0.582-0.051,1.922,1.031,1.565C128.038,51.46,131.05,51.793,131.05,51.793z"/>
</g>
<g id="Layer_2">
</g>
</svg>
