<?xml version="1.0" encoding="utf-8"?>
<!DOCTYPE svg PUBLIC "-//W3C//DTD SVG 1.1//EN" "http://www.w3.org/Graphics/SVG/1.1/DTD/svg11.dtd">
<svg version="1.1" id="Layer_1" xmlns="http://www.w3.org/2000/svg" xmlns:xlink="http://www.w3.org/1999/xlink" x="0px" y="0px"
	 width="52px" height="52px" viewBox="0 0 52 52" enable-background="new 0 0 52 52" xml:space="preserve">
<g fill="#106232">
	<path d="M28.227,11.664c-5.04-0.192-9.282,3.733-9.475,8.775c-0.106,2.757,1.025,5.274,2.895,7.022
		c0.92,0.862,2.019,1.534,3.24,1.956c0.83,0.288,1.715,0.462,2.64,0.497c5.041,0.193,9.282-3.735,9.476-8.775
		C37.197,16.102,33.268,11.858,28.227,11.664z"/>
	<path d="M26,0C11.641,0,0,11.641,0,26s11.641,26,26,26s26-11.641,26-26S40.359,0,26,0z M27.414,32.834
		c-1.42-0.055-2.772-0.354-4.021-0.854l-1.716,2.642l-1.943,2.989l-2.38,3.663c-0.793,1.208-2.192,1.691-3.128,1.077
		c-0.933-0.611-1.049-2.087-0.257-3.296l0.94-1.444l1.942-2.989l3.094-4.759c-2.643-2.314-4.257-5.753-4.111-9.536
		c0.254-6.65,5.855-11.837,12.506-11.581c6.652,0.256,11.838,5.854,11.583,12.507C39.667,27.903,34.066,33.089,27.414,32.834z"/>
</g>
</svg>
