<?xml version="1.0" encoding="utf-8"?>
<!DOCTYPE svg PUBLIC "-//W3C//DTD SVG 1.1//EN" "http://www.w3.org/Graphics/SVG/1.1/DTD/svg11.dtd">
<svg version="1.1" id="Layer_2" xmlns="http://www.w3.org/2000/svg" xmlns:xlink="http://www.w3.org/1999/xlink" x="0px" y="0px"
	 width="40.07px" height="52px" viewBox="0 0 40.07 52" enable-background="new 0 0 40.07 52" xml:space="preserve">
<g>
	<g>
		<g>
			<path fill="#FFFFFF" d="M20.035,0C8.97,0,0,8.97,0,20.035C0,31.101,8.97,40.07,20.035,40.07c11.066,0,20.036-8.97,20.036-20.036
				C40.07,8.97,31.101,0,20.035,0z M29.224,28.897c-0.36,0.591-1.129,0.775-1.718,0.416c-4.704-2.876-10.626-3.525-17.6-1.932
				c-0.672,0.154-1.342-0.267-1.495-0.939c-0.154-0.672,0.266-1.342,0.939-1.495c7.632-1.745,14.179-0.994,19.459,2.233
				C29.397,27.54,29.583,28.309,29.224,28.897z M31.675,23.442c-0.453,0.735-1.414,0.966-2.148,0.515
				c-5.384-3.31-13.594-4.269-19.964-2.335c-0.826,0.25-1.698-0.216-1.95-1.041c-0.249-0.826,0.217-1.697,1.042-1.948
				c7.276-2.208,16.322-1.139,22.507,2.662C31.896,21.747,32.126,22.709,31.675,23.442z M31.887,17.762
				c-6.459-3.835-17.111-4.188-23.276-2.317c-0.99,0.3-2.037-0.259-2.337-1.249c-0.3-0.991,0.258-2.037,1.249-2.338
				c7.077-2.148,18.842-1.733,26.276,2.68c0.891,0.528,1.183,1.679,0.655,2.568C33.926,17.997,32.774,18.29,31.887,17.762z"/>
		</g>
	</g>
	<g>
		<g>
			<path fill="#FFFFFF" d="M6.502,46.13c-1.353-0.323-1.594-0.55-1.594-1.025c0-0.449,0.423-0.752,1.052-0.752
				c0.61,0,1.215,0.229,1.849,0.703c0.019,0.014,0.043,0.02,0.067,0.016c0.024-0.003,0.044-0.017,0.059-0.036l0.661-0.931
				c0.027-0.038,0.02-0.092-0.017-0.121c-0.754-0.605-1.604-0.899-2.598-0.899c-1.46,0-2.481,0.876-2.481,2.131
				c0,1.345,0.88,1.821,2.401,2.188c1.294,0.298,1.513,0.548,1.513,0.994c0,0.495-0.442,0.803-1.153,0.803
				c-0.79,0-1.434-0.266-2.154-0.89c-0.018-0.016-0.042-0.022-0.065-0.021c-0.023,0.002-0.045,0.013-0.061,0.031L3.24,49.202
				c-0.031,0.036-0.027,0.091,0.009,0.123c0.838,0.748,1.869,1.144,2.982,1.144c1.574,0,2.591-0.86,2.591-2.191
				C8.822,47.152,8.15,46.53,6.502,46.13z"/>
			<path fill="#FFFFFF" d="M12.383,44.795c-0.683,0-1.242,0.269-1.704,0.819v-0.619c0-0.049-0.04-0.089-0.088-0.089H9.38
				c-0.049,0-0.088,0.04-0.088,0.089v6.886c0,0.049,0.04,0.089,0.088,0.089h1.211c0.049,0,0.088-0.04,0.088-0.089v-2.174
				c0.462,0.519,1.021,0.771,1.704,0.771c1.268,0,2.551-0.976,2.551-2.842C14.934,45.771,13.651,44.795,12.383,44.795z
				 M13.526,47.637c0,0.95-0.585,1.613-1.423,1.613c-0.828,0-1.453-0.693-1.453-1.613c0-0.919,0.625-1.612,1.453-1.612
				C12.927,46.024,13.526,46.702,13.526,47.637z"/>
			<path fill="#FFFFFF" d="M18.224,44.795c-1.633,0-2.912,1.258-2.912,2.862c0,1.588,1.27,2.832,2.892,2.832
				c1.638,0,2.921-1.253,2.921-2.853C21.125,46.044,19.851,44.795,18.224,44.795z M18.224,49.26c-0.869,0-1.523-0.697-1.523-1.623
				c0-0.929,0.632-1.603,1.503-1.603c0.874,0,1.533,0.697,1.533,1.623C19.736,48.586,19.1,49.26,18.224,49.26z"/>
			<path fill="#FFFFFF" d="M24.611,44.906h-1.333v-1.363c0-0.049-0.04-0.089-0.089-0.089h-1.211c-0.049,0-0.089,0.04-0.089,0.089
				v1.363h-0.583c-0.048,0-0.088,0.04-0.088,0.089v1.041c0,0.049,0.04,0.089,0.088,0.089h0.583v2.693
				c0,1.089,0.542,1.641,1.61,1.641c0.435,0,0.795-0.09,1.135-0.282c0.027-0.016,0.045-0.046,0.045-0.077v-0.991
				c0-0.03-0.017-0.06-0.042-0.075c-0.026-0.017-0.06-0.018-0.087-0.005c-0.233,0.118-0.459,0.172-0.711,0.172
				c-0.389,0-0.562-0.176-0.562-0.572v-2.503h1.333c0.049,0,0.088-0.04,0.088-0.089v-1.041
				C24.699,44.946,24.66,44.906,24.611,44.906z"/>
			<path fill="#FFFFFF" d="M29.255,44.911v-0.167c0-0.493,0.188-0.712,0.612-0.712c0.253,0,0.455,0.05,0.683,0.126
				c0.028,0.009,0.058,0.004,0.08-0.013c0.023-0.017,0.036-0.044,0.036-0.072v-1.021c0-0.039-0.024-0.073-0.062-0.085
				c-0.24-0.071-0.547-0.145-1.007-0.145c-1.118,0-1.71,0.63-1.71,1.821V44.9h-0.582c-0.049,0-0.089,0.04-0.089,0.089v1.047
				c0,0.049,0.04,0.089,0.089,0.089h0.582v4.154c0,0.049,0.039,0.089,0.088,0.089h1.212c0.049,0,0.089-0.04,0.089-0.089v-4.154
				h1.131l1.732,4.153c-0.197,0.437-0.391,0.523-0.654,0.523c-0.213,0-0.438-0.063-0.668-0.189c-0.021-0.012-0.047-0.014-0.07-0.007
				c-0.023,0.009-0.043,0.025-0.053,0.048l-0.41,0.901c-0.02,0.042-0.003,0.092,0.038,0.114C30.75,51.901,31.137,52,31.615,52
				c0.894,0,1.389-0.417,1.824-1.537l2.102-5.431c0.011-0.027,0.008-0.059-0.01-0.082c-0.017-0.024-0.043-0.039-0.072-0.039h-1.262
				c-0.037,0-0.071,0.024-0.083,0.06l-1.292,3.689l-1.415-3.691c-0.013-0.035-0.046-0.058-0.083-0.058H29.255z"/>
			<path fill="#FFFFFF" d="M26.562,44.906h-1.211c-0.049,0-0.089,0.04-0.089,0.089v5.284c0,0.049,0.04,0.089,0.089,0.089h1.211
				c0.049,0,0.089-0.04,0.089-0.089v-5.284C26.651,44.946,26.611,44.906,26.562,44.906z"/>
			<circle fill="#FFFFFF" cx="25.963" cy="43.369" r="0.869"/>
		</g>
		<g>
			<path fill="#FFFFFF" d="M36.575,46.605c-0.479,0-0.853-0.386-0.853-0.853c0-0.468,0.378-0.857,0.857-0.857
				c0.479,0,0.852,0.385,0.852,0.853C37.432,46.215,37.055,46.605,36.575,46.605z M36.58,44.98c-0.438,0-0.768,0.347-0.768,0.772
				c0,0.425,0.328,0.767,0.763,0.767c0.437,0,0.768-0.347,0.768-0.771S37.014,44.98,36.58,44.98z M36.769,45.835l0.241,0.338h-0.203
				l-0.217-0.31h-0.188v0.31h-0.17v-0.895h0.399c0.208,0,0.345,0.106,0.345,0.285C36.977,45.71,36.892,45.8,36.769,45.835z
				 M36.625,45.432h-0.223v0.283h0.223c0.11,0,0.177-0.055,0.177-0.142C36.802,45.481,36.735,45.432,36.625,45.432z"/>
		</g>
	</g>
</g>
</svg>
