<?xml version="1.0" encoding="utf-8"?>
<!DOCTYPE svg PUBLIC "-//W3C//DTD SVG 1.1//EN" "http://www.w3.org/Graphics/SVG/1.1/DTD/svg11.dtd">
<svg version="1.1" id="Layer_1" xmlns="http://www.w3.org/2000/svg" xmlns:xlink="http://www.w3.org/1999/xlink" x="0px" y="0px"
	 width="26.792px" height="30px" viewBox="0 0 26.792 30" enable-background="new 0 0 26.792 30" xml:space="preserve">
<g>
	<path fill="#FFFFFF" d="M4.781,25.312c0.086,0.057,0.184,0.083,0.279,0.083c0.165,0,0.327-0.08,0.425-0.229
		c0.153-0.234,0.088-0.55-0.146-0.704c-0.812-0.53-1.296-1.425-1.296-2.392v-5.257c0-0.279-0.228-0.507-0.508-0.507
		s-0.508,0.228-0.508,0.507v5.257C3.028,23.38,3.684,24.591,4.781,25.312z"/>
	<path fill="#FFFFFF" d="M11.702,9.121c0.186,0.335,0.531,0.524,0.89,0.524c0.166,0,0.335-0.041,0.489-0.126
		c0.492-0.272,0.67-0.889,0.398-1.381c-0.628-1.138-0.317-1.948,0.114-3.069c0.475-1.234,1.065-2.772-0.115-4.604
		c-0.304-0.471-0.933-0.606-1.402-0.303c-0.472,0.303-0.607,0.932-0.305,1.402c0.595,0.924,0.385,1.587-0.073,2.776
		C11.217,5.595,10.618,7.154,11.702,9.121z"/>
	<path fill="#FFFFFF" d="M7.729,10.23c0.191,0.316,0.527,0.493,0.871,0.493c0.179,0,0.358-0.047,0.522-0.145
		c0.48-0.289,0.636-0.913,0.348-1.394C8.994,8.393,9.157,8.071,9.513,7.366c0.405-0.802,1.019-2.013-0.002-3.755
		c-0.284-0.484-0.906-0.646-1.39-0.363c-0.483,0.284-0.646,0.905-0.363,1.39C8.22,5.425,8.057,5.746,7.701,6.45
		C7.293,7.257,6.676,8.477,7.729,10.23z"/>
	<path fill="#FFFFFF" d="M24.075,13.112c-0.537-0.224-1.104-0.338-1.683-0.338c-0.403,0-0.793,0.063-1.168,0.169v-1.204H0v10.833
		C0,26.667,3.332,30,7.428,30h6.371c3.451,0,6.351-2.37,7.181-5.565c0.072,0.004,0.146,0.015,0.218,0.015
		c1.785,0,3.38-1.066,4.063-2.714l1.193-2.876c0.45-1.085,0.451-2.281,0.002-3.366S25.161,13.562,24.075,13.112z M19.195,22.572
		c0,2.976-2.422,5.396-5.396,5.396H7.428c-2.977,0-5.397-2.421-5.397-5.396v-8.804h17.165V22.572z M24.578,18.081l-1.192,2.875
		c-0.365,0.88-1.21,1.449-2.161,1.46v-7.287c0.35-0.201,0.745-0.324,1.168-0.324c0.31,0,0.615,0.062,0.905,0.183
		c0.584,0.242,1.04,0.698,1.281,1.282C24.821,16.854,24.821,17.497,24.578,18.081z"/>
</g>
</svg>
