<?xml version="1.0" encoding="utf-8"?>
<!DOCTYPE svg PUBLIC "-//W3C//DTD SVG 1.1//EN" "http://www.w3.org/Graphics/SVG/1.1/DTD/svg11.dtd">
<svg version="1.1" id="Layer_1" xmlns="http://www.w3.org/2000/svg" xmlns:xlink="http://www.w3.org/1999/xlink" x="0px" y="0px"
	 width="40px" height="40px" viewBox="0 0 40 40" enable-background="new 0 0 40 40" xml:space="preserve">
<g>
	<path fill="#FFFFFF" d="M20,0C8.954,0,0,8.955,0,20s8.954,20,20,20s20-8.955,20-20S31.046,0,20,0z M32.46,14.001
		c-0.478,0.452-1.345,1.142-1.345,1.142s0.018,2.185-0.288,3.672c-0.305,1.485-1.354,5.148-4.061,7.896
		c-2.707,2.747-6.158,4.612-11.665,4.612c-4.336,0-7.825-2.44-7.825-2.44s1.137,0.114,1.933,0.052s2.238-0.159,3.707-0.867
		c1.468-0.708,2.301-1.301,2.406-1.416c-0.213,0.045-1.451-0.212-1.867-0.381c-0.416-0.167-1.672-0.901-2.237-1.663
		c-0.566-0.761-0.938-1.653-0.965-1.778c0.239,0.106,0.734,0.125,1.026,0.125s1.062-0.062,1.415-0.195
		c-0.274-0.018-2.025-0.566-2.893-1.638c-0.867-1.07-1.451-2.132-1.451-3.759c0.354,0.247,1.602,0.664,2.469,0.655
		c-0.487-0.213-1.743-1.336-2.203-2.92c-0.461-1.583-0.142-2.875,0.229-3.795c0.133-0.328,0.283-0.549,0.283-0.549
		c0.956,1.416,4.149,4.07,6.999,4.893c2.849,0.823,3.804,0.805,4.229,0.813c-0.106-0.212-0.168-1.371-0.142-1.663
		c0.026-0.292,0.168-1.796,1.212-3.034c1.044-1.239,2.565-1.992,4.309-1.992s3.256,1.018,3.902,1.708
		c0.265,0.018,1.433-0.353,1.672-0.451c0.238-0.097,1.469-0.637,1.778-0.85c0,0.257-0.593,1.292-0.885,1.682
		c-0.292,0.389-1.292,1.194-1.478,1.309c0.407,0.035,1.451-0.239,1.938-0.398c0.486-0.16,1.156-0.442,1.156-0.442
		S32.938,13.551,32.46,14.001z"/>
</g>
</svg>
