<?xml version="1.0" encoding="utf-8"?>
<!DOCTYPE svg PUBLIC "-//W3C//DTD SVG 1.1//EN" "http://www.w3.org/Graphics/SVG/1.1/DTD/svg11.dtd">
<svg version="1.1" id="Layer_1" xmlns="http://www.w3.org/2000/svg" xmlns:xlink="http://www.w3.org/1999/xlink" x="0px" y="0px"
	 width="27.156px" height="28px" viewBox="0 0 27.156 28" enable-background="new 0 0 27.156 28" xml:space="preserve">
<g>
	<path fill="#FFFFFF" d="M24.646,1.857l-0.044-0.009c-1.32-0.28-2.622,0.313-3.314,1.383V0H5.862v3.222
		C5.169,2.158,3.87,1.569,2.554,1.848L2.51,1.857c-1.707,0.362-2.804,2.046-2.44,3.754c0,0,0.471,1.323,0.632,2.082
		c0.16,0.758,0.267,2.166,0.267,2.166c0.361,1.708,2.047,2.803,3.755,2.441l0.043-0.009c0.507-0.107,0.959-0.334,1.336-0.64
		c0.761,3.041,3.321,5.363,6.488,5.768v5.111c-3.826,0.207-6.791,1.703-6.791,5.019V28l1.398,0v0h12.108h0.647h1.317v-0.452
		c0-3.292-2.923-4.79-6.71-5.013v-5.116c3.168-0.405,5.729-2.728,6.489-5.771c0.378,0.308,0.831,0.536,1.341,0.644l0.043,0.009
		c1.708,0.362,3.394-0.733,3.755-2.441c0,0,0.106-1.408,0.267-2.166s0.632-2.082,0.632-2.082C27.45,3.903,26.354,2.219,24.646,1.857
		z M4.47,10.892l-0.044,0.009C3.49,11.1,2.565,10.5,2.367,9.562c0,0-0.094-1.346-0.262-2.137c-0.167-0.791-0.637-2.11-0.637-2.11
		C1.27,4.378,1.87,3.455,2.807,3.256l0.044-0.009c0.936-0.199,1.86,0.402,2.058,1.339l0.899,4.248
		C6.008,9.77,5.406,10.694,4.47,10.892z M18.679,26.029H8.391c0.952-1.275,2.895-1.85,5.145-1.85
		C15.784,24.179,17.728,24.754,18.679,26.029z M19.329,9.238c0,3.177-2.577,6.038-5.753,6.038c-3.178,0-5.755-2.861-5.755-6.038
		V2.103h11.508V9.238z M25.688,5.315c0,0-0.47,1.32-0.637,2.11c-0.168,0.791-0.262,2.137-0.262,2.137
		c-0.198,0.938-1.123,1.538-2.059,1.339l-0.044-0.009c-0.937-0.198-1.538-1.122-1.339-2.058l0.9-4.248
		c0.197-0.937,1.122-1.538,2.058-1.339l0.044,0.009C25.286,3.455,25.887,4.378,25.688,5.315z"/>
	<path fill="#FFFFFF" d="M14.102,13.841c2.454,0,3.978-1.852,3.978-4.833c0-0.146-0.117-0.263-0.262-0.263
		c-0.146,0-0.265,0.118-0.265,0.263c0,2.697-1.289,4.307-3.451,4.307c-0.146,0-0.263,0.118-0.263,0.263S13.956,13.841,14.102,13.841
		z"/>
</g>
</svg>
