<?xml version="1.0" encoding="utf-8"?>
<!DOCTYPE svg PUBLIC "-//W3C//DTD SVG 1.1//EN" "http://www.w3.org/Graphics/SVG/1.1/DTD/svg11.dtd">
<svg version="1.1" id="Layer_1" xmlns="http://www.w3.org/2000/svg" xmlns:xlink="http://www.w3.org/1999/xlink" x="0px" y="0px"
	 width="52.003px" height="52px" viewBox="0 0 52.003 52" enable-background="new 0 0 52.003 52" xml:space="preserve">
<g>
	<path fill="#FFFFFF" d="M26.001,0C11.642,0,0,11.642,0,25.997C0,40.361,11.642,52,26.001,52c14.361,0,26.001-11.639,26.001-26.003
		C52.003,11.642,40.363,0,26.001,0z M24.951,41.742C17,41.745,10.528,35.278,10.525,27.325c-0.005-7.95,6.462-14.427,14.413-14.43
		c3.197,0,6.15,1.045,8.543,2.81l-1.516,1.521c-1.995-1.392-4.416-2.209-7.027-2.206c-6.78,0.002-12.296,5.521-12.291,12.305
		c0.001,6.784,5.524,12.295,12.304,12.295c6.784-0.002,12.299-5.524,12.299-12.303c-0.005-2.616-0.823-5.043-2.221-7.032
		l1.519-1.521c1.77,2.397,2.819,5.35,2.82,8.552C39.372,35.269,32.906,41.737,24.951,41.742z M24.951,33.811
		c3.577,0,6.487-2.913,6.487-6.493c0-1.011-0.235-1.963-0.649-2.823l1.63-1.595c0.772,1.296,1.22,2.802,1.22,4.418
		c0.001,4.794-3.896,8.691-8.688,8.699c-4.794,0.003-8.693-3.902-8.698-8.691c-0.001-4.794,3.897-8.696,8.689-8.699
		c1.602-0.002,3.125,0.45,4.415,1.207l-1.63,1.627c-0.832-0.389-1.805-0.63-2.785-0.63c-3.577,0-6.49,2.916-6.487,6.495
		C18.457,30.902,21.372,33.811,24.951,33.811z M40.093,16.779c-0.871,0.868-1.692,0.435-2.316,0.435
		c-0.628,0.005-0.952-0.085-1.352,0.314c-0.043,0.045-0.214,0.217-0.478,0.481c-0.351,0.354-0.872,0.876-1.498,1.508
		c-0.747,0.754-1.642,1.654-2.566,2.591c-0.517,0.519-1.046,1.05-1.565,1.574c-1.224,1.232-2.392,2.41-3.253,3.275
		c0.022,0.119,0.037,0.235,0.037,0.362c0,1.19-0.963,2.159-2.155,2.159c-1.193,0-2.158-0.969-2.158-2.159s0.964-2.159,2.155-2.159
		c0.179,0,0.345,0.029,0.511,0.069c0.863-0.853,2.019-2.003,3.228-3.204c0.522-0.521,1.052-1.054,1.577-1.569
		c0.931-0.923,1.824-1.815,2.577-2.563c0.627-0.625,1.151-1.146,1.508-1.498c0.272-0.27,0.451-0.452,0.495-0.494
		c0.399-0.402,0.314-0.72,0.314-1.35s-0.434-1.45,0.433-2.317c0.868-0.868,3.665-3.45,3.665-3.45l1.115,2.868l-2.71,3.204
		l3.061-2.84l2.823,1.093C43.54,13.109,40.958,15.909,40.093,16.779z"/>
</g>
</svg>
