<?xml version="1.0" encoding="utf-8"?>
<!DOCTYPE svg PUBLIC "-//W3C//DTD SVG 1.1//EN" "http://www.w3.org/Graphics/SVG/1.1/DTD/svg11.dtd">
<svg version="1.1" id="Layer_1" xmlns="http://www.w3.org/2000/svg" xmlns:xlink="http://www.w3.org/1999/xlink" x="0px" y="0px"
	 width="15px" height="15px" viewBox="0 0 15 15" enable-background="new 0 0 15 15" xml:space="preserve">
<g>
	<path fill="#FFFFFF" d="M0.632,15h13.736C14.717,15,15,14.717,15,14.368V0.631C15,0.283,14.717,0,14.368,0H0.632
		C0.283,0,0,0.283,0,0.631v13.737C0,14.717,0.283,15,0.632,15z M10.337,3.948V1.792h2.39c0.266,0,0.481,0.215,0.481,0.48v2.292
		h-2.243h-0.628V3.948z M4.482,6.285c0.479-1.179,1.636-2.01,2.988-2.01s2.508,0.832,2.988,2.01C10.611,6.66,10.696,7.07,10.696,7.5
		c0,1.781-1.444,3.226-3.226,3.226S4.245,9.281,4.245,7.5C4.245,7.07,4.329,6.66,4.482,6.285z M1.792,6.285H3.07
		C2.963,6.672,2.905,7.079,2.905,7.5c0,2.521,2.043,4.565,4.565,4.565c2.521,0,4.565-2.044,4.565-4.565
		c0-0.421-0.058-0.828-0.165-1.215h1.337v6.442c0,0.266-0.215,0.481-0.481,0.481H2.273c-0.266,0-0.481-0.215-0.481-0.481V6.285z"/>
</g>
</svg>
