<?xml version="1.0" encoding="utf-8"?>
<!DOCTYPE svg PUBLIC "-//W3C//DTD SVG 1.1//EN" "http://www.w3.org/Graphics/SVG/1.1/DTD/svg11.dtd">
<svg version="1.1" id="Layer_1" xmlns="http://www.w3.org/2000/svg" xmlns:xlink="http://www.w3.org/1999/xlink" x="0px" y="0px"
	 width="52px" height="52px" viewBox="0 0 52 52" enable-background="new 0 0 52 52" xml:space="preserve">
<g>
	<path fill="#106232" d="M26,0C11.641,0,0,11.641,0,26s11.641,26,26,26s26-11.641,26-26S40.359,0,26,0z M39.559,38.864
		c0,0.464-0.376,0.841-0.84,0.841H12.976c-0.464,0-0.84-0.376-0.84-0.841V13.122c0-0.464,0.376-0.841,0.84-0.841h25.743
		c0.464,0,0.84,0.376,0.84,0.841V38.864z"/>
	<path fill="#106232" d="M36.534,19.791H15.16c-0.386,0-0.698,0.313-0.698,0.698v16.19c0,0.386,0.312,0.699,0.698,0.699h21.374
		c0.385,0,0.698-0.313,0.698-0.699v-16.19C37.232,20.104,36.919,19.791,36.534,19.791z M25.412,33.946h-7.378v-0.971l3.294-3.359
		c0.796-0.806,1.326-1.454,1.589-1.944c0.263-0.49,0.395-0.933,0.395-1.329c0-0.41-0.137-0.749-0.409-1.018
		c-0.272-0.267-0.623-0.401-1.053-0.401c-0.434,0-0.796,0.161-1.086,0.485c-0.289,0.323-0.444,0.763-0.463,1.317h-1.976
		c0.053-1.148,0.414-2.052,1.083-2.711c0.667-0.659,1.526-0.988,2.574-0.988c0.646,0,1.217,0.136,1.712,0.409
		c0.495,0.272,0.891,0.666,1.188,1.18c0.296,0.515,0.445,1.037,0.445,1.568c0,0.632-0.18,1.312-0.54,2.042
		c-0.359,0.729-1.018,1.59-1.974,2.584l-1.196,1.26h3.796V33.946z M32.459,33.247c-0.649,0.645-1.432,0.967-2.349,0.967
		c-0.961,0-1.761-0.333-2.4-1.003c-0.639-0.668-0.959-1.435-0.959-2.298c0-0.329,0.049-0.659,0.148-0.992
		c0.099-0.333,0.328-0.844,0.685-1.534l2.736-5.358l1.727,0.863l-1.864,3.618c0.903,0,1.67,0.323,2.303,0.97s0.948,1.45,0.948,2.411
		C33.433,31.817,33.109,32.603,32.459,33.247z"/>
	<path fill="#106232" d="M30.067,29.428c-0.376,0-0.693,0.136-0.949,0.409c-0.255,0.273-0.383,0.614-0.383,1.025
		c0,0.41,0.134,0.755,0.402,1.035c0.267,0.28,0.58,0.42,0.937,0.42c0.376,0,0.7-0.138,0.97-0.413
		c0.27-0.275,0.406-0.623,0.406-1.042c0-0.411-0.132-0.752-0.395-1.025C30.792,29.564,30.462,29.428,30.067,29.428z"/>
</g>
</svg>
