<?xml version="1.0" encoding="utf-8"?>
<!DOCTYPE svg PUBLIC "-//W3C//DTD SVG 1.1//EN" "http://www.w3.org/Graphics/SVG/1.1/DTD/svg11.dtd">
<svg version="1.1" id="Layer_1" xmlns="http://www.w3.org/2000/svg" xmlns:xlink="http://www.w3.org/1999/xlink" x="0px" y="0px"
	 width="51.999px" height="52px" viewBox="0 0 51.999 52" enable-background="new 0 0 51.999 52" xml:space="preserve">
<g>
	<path fill="#FFFFFF" d="M34.745,31.84c0-1.007-0.393-1.95-1.104-2.665l0.012-0.013L22.156,17.597v1.539
		c0,0.538-0.434,0.973-0.971,0.973h-1.945v1.942c0,0.293-0.133,0.572-0.358,0.754c-0.227,0.185-0.527,0.256-0.816,0.195
		l-1.599-0.338l11.841,11.843c0.714,0.714,1.66,1.112,2.668,1.112c1.006,0,1.957-0.398,2.665-1.112
		C34.353,33.793,34.745,32.844,34.745,31.84z M32.565,33.435c-0.381,0.382-0.994,0.382-1.375,0l-9.721-9.724
		c-0.189-0.189-0.286-0.438-0.286-0.685c0-0.253,0.096-0.501,0.286-0.688c0.378-0.379,0.994-0.379,1.375,0l9.72,9.721
		C32.945,32.438,32.945,33.055,32.565,33.435z"/>
	<path fill="#FFFFFF" d="M25.997,0C11.641,0,0,11.646,0,26.002C0,40.363,11.641,52,25.997,52c14.359,0,26.001-11.637,26.001-25.998
		C51.999,11.646,40.356,0,25.997,0z M30.653,17.705c0.001-0.011,0.002-0.011,0.002-0.011c0.012-0.003,0.013-0.008,0.019-0.014
		c0.061-0.061,0.137-0.098,0.208-0.142c0.034-0.024,0.064-0.053,0.106-0.069c0.115-0.05,0.241-0.079,0.368-0.079
		c0.123,0,0.244,0.029,0.356,0.074c0.041,0.019,0.072,0.042,0.103,0.063c0.07,0.036,0.144,0.068,0.202,0.126
		c0,0,0.007,0.008,0.008,0.011c0.006,0.005,0.013,0.005,0.014,0.016c0.047,0.04,0.069,0.101,0.103,0.147
		c0.036,0.053,0.082,0.101,0.105,0.15c0.023,0.066,0.03,0.129,0.04,0.192c0.013,0.059,0.034,0.111,0.034,0.172
		c0.005,0.062-0.02,0.124-0.026,0.182c-0.011,0.063-0.016,0.124-0.04,0.182c-0.02,0.068-0.067,0.113-0.099,0.171
		c-0.031,0.048-0.048,0.098-0.091,0.143l-0.026,0.029c-0.373,0.374-0.373,0.985,0.004,1.365c0.38,0.374,0.991,0.374,1.364,0
		l0.029-0.021c0.042-0.047,0.1-0.062,0.152-0.092c0.051-0.039,0.103-0.084,0.159-0.098c0.063-0.031,0.133-0.031,0.199-0.042
		c0.055-0.008,0.109-0.032,0.165-0.032c0.064,0.003,0.13,0.029,0.192,0.043c0.058,0.013,0.115,0.013,0.17,0.037
		c0.058,0.025,0.103,0.068,0.153,0.1c0.056,0.037,0.111,0.059,0.154,0.105c0.004,0.003,0.007,0.006,0.008,0.019
		c0.005,0.003,0.013,0.005,0.016,0.005c0.04,0.043,0.055,0.096,0.085,0.146c0.038,0.05,0.084,0.103,0.107,0.171
		c0.021,0.059,0.025,0.116,0.033,0.172c0.013,0.062,0.032,0.126,0.032,0.189c-0.002,0.058-0.021,0.113-0.036,0.174
		c-0.01,0.061-0.017,0.127-0.04,0.188c-0.026,0.05-0.07,0.1-0.104,0.15c-0.03,0.047-0.055,0.105-0.102,0.149
		c-0.008,0.009-0.013,0.014-0.019,0.021c-0.004,0-0.004,0.003-0.006,0.008l-2.512,2.335l-1.405-1.336l0.558-0.517
		c-0.26-0.132-0.507-0.29-0.722-0.512c-0.215-0.208-0.375-0.461-0.511-0.719l-0.479,0.514l-1.356-1.381L30.653,17.705z
		 M14.22,40.949c-0.34,0.343-0.827,0.545-1.342,0.545c-0.519,0-1.001-0.202-1.369-0.569c-0.754-0.753-0.754-1.977,0-2.73
		l8.076-8.645l1.347,1.392l-8.033,8.595l8.608-8.025l1.427,1.359L14.22,40.949z M38.955,39.821
		c-1.081,1.077-2.513,1.671-4.041,1.673c-1.527,0-2.964-0.596-4.041-1.673L12.767,21.719c-0.109-0.116-0.193-0.256-0.241-0.403
		l-2.964-9.67c-0.032-0.096-0.043-0.192-0.043-0.293c0-0.256,0.105-0.514,0.303-0.709c0.264-0.24,0.655-0.324,1.003-0.2l10.69,3.891
		c0.135,0.05,0.261,0.126,0.357,0.227L38.957,31.75c1.081,1.07,1.671,2.51,1.671,4.027C40.628,37.307,40.037,38.74,38.955,39.821z
		 M41.891,11.703c-0.165,0.883-1.04,5.377-2.319,6.658c-1.461,1.468-4.014,1.468-5.476,0c-0.728-0.733-1.132-1.703-1.132-2.733
		c0-1.036,0.405-1.998,1.132-2.739c1.285-1.27,5.779-2.15,6.667-2.311c0.058-0.014,0.119-0.024,0.178-0.024
		c0.253,0,0.5,0.111,0.684,0.287C41.85,11.07,41.949,11.392,41.891,11.703z"/>
	<path fill="#FFFFFF" d="M37.581,33.118l-0.908-0.92c-0.087,1.397-0.663,2.684-1.655,3.688c-0.991,0.991-2.289,1.561-3.68,1.658
		l0.911,0.901c0.708,0.711,1.658,1.106,2.665,1.106s1.956-0.396,2.667-1.106c0.708-0.715,1.103-1.661,1.103-2.668
		C38.684,34.776,38.289,33.824,37.581,33.118L37.581,33.118z"/>
	<path fill="#FFFFFF" d="M17.298,19.136c0-0.543,0.435-0.97,0.971-0.97h1.942v-2.238l-4.556-1.655
		c-0.247,0.473-0.543,0.926-0.933,1.321c-0.448,0.447-0.999,0.774-1.614,0.985l1.109,3.616l3.08,0.653V19.136z"/>
	<path fill="#FFFFFF" d="M34.897,15.628c0,0.517,0.199,0.999,0.568,1.365c0.364,0.369,0.851,0.569,1.371,0.569
		c0.518,0,1-0.2,1.367-0.569c0.452-0.451,1.057-2.322,1.489-4.22c-1.896,0.432-3.774,1.033-4.225,1.489
		C35.096,14.621,34.897,15.113,34.897,15.628z"/>
</g>
</svg>
