<?xml version="1.0" encoding="utf-8"?>
<!DOCTYPE svg PUBLIC "-//W3C//DTD SVG 1.1//EN" "http://www.w3.org/Graphics/SVG/1.1/DTD/svg11.dtd">
<svg version="1.1" id="Layer_1" xmlns="http://www.w3.org/2000/svg" xmlns:xlink="http://www.w3.org/1999/xlink" x="0px" y="0px"
	 width="21.554px" height="30px" viewBox="0 0 21.554 30" enable-background="new 0 0 21.554 30" xml:space="preserve">
<path fill="#FFFFFF" d="M15.194,28.79c-0.232,0.867-1.113,1.385-1.966,1.156L1.182,26.718c-0.854-0.229-1.357-1.118-1.125-1.985
	L6.359,1.211c0.232-0.868,1.113-1.386,1.967-1.157l12.046,3.228c0.853,0.228,1.357,1.117,1.125,1.985L15.194,28.79z M11.509,3.922
	c0.167,0.045,0.339-0.054,0.384-0.221c0.045-0.168-0.055-0.339-0.222-0.384c-0.167-0.044-0.339,0.054-0.384,0.222
	C11.243,3.706,11.343,3.878,11.509,3.922z M15.19,4.584c0.045-0.167-0.055-0.339-0.222-0.383l-2.354-0.632
	c-0.167-0.044-0.339,0.054-0.384,0.222l0,0c-0.045,0.167,0.055,0.339,0.222,0.383l2.355,0.631
	C14.973,4.851,15.146,4.751,15.19,4.584L15.19,4.584z M7.349,27.793c0.855,0.229,1.733-0.278,1.962-1.132
	c0.229-0.855-0.278-1.733-1.132-1.962c-0.855-0.229-1.733,0.278-1.962,1.133C5.987,26.686,6.494,27.564,7.349,27.793z M19.502,7.867
	L6.854,4.478L2.085,22.273l12.648,3.389L19.502,7.867z"/>
</svg>
