<?xml version="1.0" encoding="utf-8"?>
<!DOCTYPE svg PUBLIC "-//W3C//DTD SVG 1.1//EN" "http://www.w3.org/Graphics/SVG/1.1/DTD/svg11.dtd">
<svg version="1.1" id="Layer_1" xmlns="http://www.w3.org/2000/svg" xmlns:xlink="http://www.w3.org/1999/xlink" x="0px" y="0px"
	 width="23.994px" height="28px" viewBox="0 0 23.994 28" enable-background="new 0 0 23.994 28" xml:space="preserve">
<g>
	<path fill="#FFFFFF" d="M8.029,11.566L7.595,12v2.648v1.621h1.62h2.909l0.174-0.174l8.131-8.133l2.127-2.127l1.29-1.29l0.097-0.097
		c0.029-0.048,0.052-0.101,0.052-0.161c0-0.08-0.033-0.152-0.083-0.207l-0.019-0.019l-1.337-1.338l-0.133-0.132l-0.002,0.003
		l-1.022-1.021l0.003-0.004l-0.208-0.208l-1.262-1.261l-0.018-0.019C19.858,0.032,19.786,0,19.707,0
		c-0.062,0-0.114,0.021-0.162,0.053l-0.096,0.095l-1.214,1.215l-2.127,2.125L8.029,11.566z M19.483,3.487l0.273-0.273l0.274,0.273
		l0.397,0.398l0.351,0.351l-0.351,0.351l-0.562,0.562l-1.022-1.022L19.483,3.487z M18.756,6.26l-8.082,8.083H9.521v-0.894
		l8.212-8.212L18.756,6.26z"/>
	<path fill="#FFFFFF" d="M0.598,28h21.361c0.329,0,0.597-0.267,0.597-0.597V7.568l-2.127,2.127V25.39
		c0,0.268-0.217,0.485-0.483,0.485H2.611c-0.268,0-0.484-0.218-0.484-0.485V3.972c0-0.267,0.217-0.484,0.484-0.484h11.77
		l2.126-2.125H0.598C0.268,1.362,0,1.629,0,1.958v25.445C0,27.733,0.268,28,0.598,28z"/>
</g>
</svg>
