<?xml version="1.0" encoding="utf-8"?>
<!DOCTYPE svg PUBLIC "-//W3C//DTD SVG 1.1//EN" "http://www.w3.org/Graphics/SVG/1.1/DTD/svg11.dtd">
<svg version="1.1" id="Layer_1" xmlns="http://www.w3.org/2000/svg" xmlns:xlink="http://www.w3.org/1999/xlink" x="0px" y="0px"
	 width="40px" height="40px" viewBox="0 0 40 40" enable-background="new 0 0 40 40" xml:space="preserve">
<g>
	<path fill="#FFFFFF" d="M27.294,12.036h-3.335v3.009v0.86h0.876h3.13v-3.199C27.965,12.336,27.664,12.036,27.294,12.036z"/>
	<path fill="#FFFFFF" d="M19.958,24.501c2.485,0,4.5-2.016,4.5-4.501c0-0.6-0.117-1.172-0.33-1.695
		c-0.67-1.645-2.284-2.805-4.17-2.805s-3.499,1.16-4.168,2.805C15.575,18.828,15.458,19.4,15.458,20
		C15.458,22.485,17.474,24.501,19.958,24.501z"/>
	<path fill="#FFFFFF" d="M26.327,20c0,3.518-2.852,6.369-6.369,6.369S13.59,23.518,13.59,20c0-0.587,0.08-1.155,0.229-1.695h-1.783
		v8.989c0,0.37,0.301,0.67,0.671,0.67h14.588c0.37,0,0.671-0.3,0.671-0.67v-8.989h-1.867C26.247,18.845,26.327,19.413,26.327,20z"/>
	<path fill="#FFFFFF" d="M20,0C8.954,0,0,8.954,0,20s8.954,20,20,20s20-8.954,20-20S31.046,0,20,0z M30.465,29.583
		c0,0.486-0.396,0.882-0.882,0.882H10.417c-0.486,0-0.882-0.396-0.882-0.882V10.417c0-0.486,0.396-0.881,0.882-0.881h19.166
		c0.486,0,0.882,0.395,0.882,0.881V29.583z"/>
</g>
</svg>
