<?xml version="1.0" encoding="utf-8"?>
<!DOCTYPE svg PUBLIC "-//W3C//DTD SVG 1.1//EN" "http://www.w3.org/Graphics/SVG/1.1/DTD/svg11.dtd">
<svg version="1.1" id="Layer_1" xmlns="http://www.w3.org/2000/svg" xmlns:xlink="http://www.w3.org/1999/xlink" x="0px" y="0px"
	 width="51.999px" height="52px" viewBox="0 0 51.999 52" enable-background="new 0 0 51.999 52" xml:space="preserve">
<g fill="#106232">
	<path d="M17.841,15.599v14.438v0.003c6.299-2.696,12.597,1.922,18.896,0.967v-14.44
		C30.438,17.521,24.14,12.903,17.841,15.599z"/>
	<path d="M26,0C11.641,0,0,11.641,0,26s11.641,26,26,26s25.999-11.641,25.999-26S40.359,0,26,0z M39.571,15.719
		c-0.009,0.004-0.018,0.007-0.026,0.011h0.026v14.429v1.48c0,0.451,0,0.902,0,1.354c-7.244,3.357-14.487-3.219-21.73-0.119v7.681
		h-3.988V12.332h0.041c-0.001-0.013-0.004-0.027-0.004-0.04c0-1.074,0.87-1.944,1.943-1.944c1.074,0,1.944,0.87,1.944,1.944
		c0,0.013-0.004,0.027-0.004,0.04h0.067v0.164v0.269c7.243-3.1,14.486,3.477,21.73,0.12C39.571,13.829,39.571,14.773,39.571,15.719z
		"/>
</g>
</svg>
