<?xml version="1.0" encoding="utf-8"?>
<!DOCTYPE svg PUBLIC "-//W3C//DTD SVG 1.1//EN" "http://www.w3.org/Graphics/SVG/1.1/DTD/svg11.dtd">
<svg version="1.1" id="Layer_1" xmlns="http://www.w3.org/2000/svg" xmlns:xlink="http://www.w3.org/1999/xlink" x="0px" y="0px"
	 width="51.997px" height="52px" viewBox="0 0 51.997 52" enable-background="new 0 0 51.997 52" xml:space="preserve">
<g fill="#106232">
	<path d="M25.969,38.761c-2.7,0-5.033,0.688-6.178,2.22h12.357C31.004,39.449,28.67,38.761,25.969,38.761z"/>
	<path d="M19.11,20.814c0,3.818,3.091,7.254,6.91,7.254c3.815,0,6.907-3.436,6.907-7.254v-8.565H19.11V20.814z
		 M26.65,25.713c2.596,0,4.146-1.936,4.146-5.168c0-0.177,0.142-0.319,0.315-0.319c0.174,0,0.315,0.143,0.315,0.319
		c0,3.577-1.831,5.798-4.776,5.798c-0.175,0-0.316-0.14-0.316-0.313S26.476,25.713,26.65,25.713z"/>
	<path d="M15.611,15.23c-0.239-1.127-1.348-1.85-2.472-1.608l-0.053,0.016c-1.125,0.233-1.847,1.345-1.606,2.472
		c0,0,0.563,1.583,0.764,2.531c0.202,0.95,0.315,2.567,0.315,2.567c0.238,1.124,1.35,1.842,2.472,1.606l0.053-0.011
		c1.125-0.238,1.846-1.35,1.607-2.477L15.611,15.23z"/>
	<path d="M25.999,0C11.64,0,0,11.638,0,25.998C0,40.359,11.64,52,25.999,52c14.358,0,25.998-11.641,25.998-26.002
		C51.997,11.638,40.357,0,25.999,0z M42.246,16.459c0,0-0.566,1.591-0.759,2.505c-0.193,0.909-0.321,2.602-0.321,2.602
		c-0.434,2.047-2.458,3.362-4.507,2.93l-0.054-0.015c-0.61-0.127-1.154-0.399-1.61-0.772c-0.911,3.653-3.986,6.448-7.792,6.936v6.14
		c4.548,0.27,8.058,2.068,8.058,6.024v0.538h-1.581h-0.781H18.36l0,0h-1.681v-0.538c0-3.982,3.562-5.78,8.157-6.029v-6.135
		c-3.804-0.487-6.877-3.28-7.792-6.928c-0.454,0.365-0.995,0.643-1.604,0.765l-0.052,0.015c-2.049,0.436-4.075-0.883-4.51-2.93
		c0,0-0.126-1.692-0.317-2.602c-0.193-0.914-0.762-2.505-0.762-2.505c-0.436-2.05,0.879-4.07,2.931-4.506l0.055-0.01
		c1.579-0.337,3.139,0.367,3.972,1.647V9.726H35.28v3.876c0.832-1.283,2.396-1.995,3.981-1.658l0.051,0.01
		C41.365,12.389,42.68,14.409,42.246,16.459z"/>
	<path d="M38.958,13.633l-0.053-0.011c-1.124-0.241-2.233,0.481-2.471,1.608l-1.083,5.097
		c-0.236,1.127,0.487,2.238,1.607,2.477l0.054,0.011c1.126,0.235,2.235-0.482,2.475-1.606c0,0,0.111-1.617,0.313-2.57
		c0.199-0.945,0.766-2.528,0.766-2.528C40.805,14.982,40.081,13.871,38.958,13.633z"/>
</g>
</svg>
