<?xml version="1.0" encoding="utf-8"?>
<!DOCTYPE svg PUBLIC "-//W3C//DTD SVG 1.1//EN" "http://www.w3.org/Graphics/SVG/1.1/DTD/svg11.dtd">
<svg version="1.1" id="Layer_1" xmlns="http://www.w3.org/2000/svg" xmlns:xlink="http://www.w3.org/1999/xlink" x="0px" y="0px"
	 width="19.705px" height="16px" viewBox="0 0 19.705 16" enable-background="new 0 0 19.705 16" xml:space="preserve">
<path fill="#FFFFFF" d="M1.375,0.73c0.709,1.05,3.081,3.021,5.196,3.632C8.686,4.973,9.395,4.959,9.71,4.966
	C9.631,4.809,9.585,3.948,9.605,3.731c0.019-0.217,0.124-1.333,0.899-2.253C11.28,0.559,12.41,0,13.704,0s2.417,0.756,2.897,1.269
	c0.196,0.013,1.063-0.263,1.241-0.335s1.09-0.473,1.32-0.631c0,0.19-0.44,0.959-0.657,1.248s-0.959,0.887-1.097,0.972
	c0.302,0.026,1.077-0.177,1.438-0.295c0.361-0.119,0.859-0.329,0.859-0.329s-0.655,0.906-1.01,1.241s-0.998,0.848-0.998,0.848
	s0.013,1.622-0.214,2.726c-0.227,1.104-1.005,3.822-3.015,5.862S9.897,16,5.809,16C2.59,16,0,14.188,0,14.188
	s0.844,0.085,1.434,0.039c0.591-0.046,1.662-0.118,2.752-0.644c1.09-0.526,1.708-0.966,1.786-1.051
	c-0.158,0.033-1.077-0.158-1.386-0.283c-0.309-0.125-1.241-0.669-1.662-1.235c-0.42-0.565-0.696-1.228-0.716-1.32
	c0.177,0.079,0.545,0.092,0.762,0.092c0.216,0,0.788-0.046,1.051-0.145c-0.204-0.013-1.504-0.42-2.148-1.215
	C1.23,7.633,0.797,6.845,0.797,5.636C1.06,5.82,1.986,6.129,2.63,6.123C2.269,5.964,1.336,5.13,0.994,3.955S0.89,1.82,1.165,1.137
	C1.263,0.894,1.375,0.73,1.375,0.73z"/>
</svg>
