<?xml version="1.0" encoding="utf-8"?>
<!DOCTYPE svg PUBLIC "-//W3C//DTD SVG 1.1//EN" "http://www.w3.org/Graphics/SVG/1.1/DTD/svg11.dtd">
<svg version="1.1" id="Layer_1" xmlns="http://www.w3.org/2000/svg" xmlns:xlink="http://www.w3.org/1999/xlink" x="0px" y="0px"
	 width="52.001px" height="52px" viewBox="0 0 52.001 52" enable-background="new 0 0 52.001 52" xml:space="preserve">
<g>
	<circle fill="none" cx="19.924" cy="39.491" r="2.036"/>
	<circle fill="none" cx="29.344" cy="11.891" r="0.398"/>
	<path fill="none" d="M30.312,12.762l2.824,1.273c0.201,0.09,0.438,0,0.527-0.2c0.091-0.2,0-0.437-0.2-0.526l-2.825-1.273
		c-0.2-0.089-0.437,0-0.526,0.2C30.021,12.436,30.111,12.673,30.312,12.762z"/>
	
		<rect x="17.687" y="14.385" transform="matrix(-0.9118 -0.4106 0.4106 -0.9118 39.0072 60.5603)" fill="none" width="16.642" height="23.413"/>
	<g>
		<circle fill="#106232" cx="19.924" cy="39.491" r="2.036"/>
		<circle fill="#106232" cx="29.344" cy="11.891" r="0.398"/>
		<path fill="#106232" d="M36.675,2.299C23.585-3.596,8.194,2.236,2.299,15.325c-5.896,13.09-0.062,28.48,13.027,34.375
			c13.089,5.895,28.479,0.062,34.375-13.027S49.764,8.194,36.675,2.299z M28.726,44.199c-0.469,1.04-1.68,1.51-2.703,1.049
			l-14.451-6.508c-1.024-0.461-1.475-1.679-1.006-2.719L23.274,7.8c0.469-1.041,1.679-1.51,2.703-1.049l14.451,6.509
			c1.023,0.461,1.475,1.678,1.006,2.719L28.726,44.199z"/>
		
			<rect x="17.687" y="14.385" transform="matrix(-0.9118 -0.4106 0.4106 -0.9118 39.0072 60.5603)" fill="#106232" width="16.642" height="23.413"/>
		<path fill="#106232" d="M30.312,12.762l2.824,1.273c0.201,0.09,0.438,0,0.527-0.2c0.091-0.2,0-0.437-0.2-0.526l-2.825-1.273
			c-0.2-0.089-0.437,0-0.526,0.2C30.021,12.436,30.111,12.673,30.312,12.762z"/>
	</g>
</g>
</svg>
