<?xml version="1.0" encoding="utf-8"?>
<!DOCTYPE svg PUBLIC "-//W3C//DTD SVG 1.1//EN" "http://www.w3.org/Graphics/SVG/1.1/DTD/svg11.dtd">
<svg version="1.1" id="Layer_1" xmlns="http://www.w3.org/2000/svg" xmlns:xlink="http://www.w3.org/1999/xlink" x="0px" y="0px"
	 width="37.775px" height="28px" viewBox="0 0 37.775 28" enable-background="new 0 0 37.775 28" xml:space="preserve">
<g>
	<path fill="#FFFFFF" d="M2.871,13.899c0,0,0.156,0.037,0.321,0.037s0.972-0.055,1.705-0.238c0.733-0.184,1.668-0.449,2.25-0.815
		c0.582-0.366,1.823-1.43,2.52-2.209c0.697-0.778,1.907-2.208,2.305-3.134c0.399-0.926,0.481-1.256,0.334-2.048
		c-0.146-0.793-0.751-1.233-0.934-1.339c-0.184-0.104-0.649-0.176-1.106-0.176c-1.306,0-2.9,0.633-4.44,2.034
		c-1.539,1.402-2.481,2.747-3.471,4.223c-0.99,1.475-1.878,3.895-2.099,4.72c-0.22,0.824-0.442,2.405,0,3.67
		s1.453,1.443,2.223,1.443c0.77,0,2.021-0.097,3.113-1.464c-0.268,0.447-0.516,0.797-0.646,0.989
		c-0.131,0.192-1.368,1.904-1.602,2.275c-0.233,0.371-1.017,1.773-1.237,2.247c-0.22,0.475-0.244,0.533-0.254,0.561
		c-0.011,0.027-0.093,0.247,0.092,0.343c0.186,0.097,0.564,0.272,1.34,0.293c0.777,0.021,1.155-0.034,1.23-0.056
		c0.075-0.021,0.168-0.038,0.199-0.303c0.031-0.264,0.343-1.229,0.562-1.683s0.792-1.832,1.087-2.499
		c0.295-0.666,0.914-2.014,1.014-2.227s0.736-1.533,0.976-1.873c0.241-0.34,0.69-0.938,1.07-1.352
		c0.38-0.412,0.884-0.957,0.989-1.566c0.105-0.61,0.083-0.807-0.398-1.031s-0.958,0.274-1.104,0.427
		c-0.146,0.15-0.623,0.814-0.789,1.021c-0.165,0.207-0.907,1.283-1.791,2.162c-0.884,0.881-1.718,1.233-2.483,1.233
		c-0.816,0-1.389-0.55-1.521-1.273c-0.132-0.725,0.037-1.426,0.229-1.837C2.747,14.042,2.871,13.899,2.871,13.899z M4.044,11.416
		c0.192-0.303,1.25-1.893,1.979-2.77C6.752,7.77,7.755,6.798,8.337,6.381c0.583-0.417,1.416-0.853,1.865-0.853
		c0.449,0,0.71,0.357,0.71,0.729c0,0.372-0.307,0.894-0.436,1.128C10.349,7.618,9.84,8.323,8.782,9.378
		c-1.058,1.053-2.223,1.621-2.969,1.951s-1.453,0.436-1.979,0.436C3.833,11.765,3.852,11.719,4.044,11.416z"/>
</g>
<g>
	<path fill="#FFFFFF" d="M18.11,10.986c-0.375-0.138-0.583-0.11-0.783-0.495c0.116-0.247,0.34-1.375,0.3-1.828
		c-0.04-0.453-0.262-1.814-1.808-1.814c-0.509,0-1.638,0.247-3.034,2.021c-1.433,1.773-0.979,3.279-0.849,3.643
		c0.132,0.365,0.358,1.079,1.76,1.079c1.403,0,2.518-1.216,2.75-1.519c0.23-0.303,0.53-0.798,0.53-0.798s0.272,0.262,1.116,0.124
		C18.389,11.31,18.487,11.123,18.11,10.986z M15.863,10.973c-0.288,0.254-0.743,0.865-1.71,0.865s-1.057-0.865-0.948-1.408
		c0.108-0.543,0.552-1.472,1.047-2.049c0.49-0.577,1.043-0.79,1.454-0.79s0.612,0.158,0.612,0.158
		c-0.207,0.295-0.618,1.03-0.602,1.745c0.019,0.715,0.503,0.963,0.503,0.963S16.15,10.718,15.863,10.973z"/>
</g>
<g>
	<path fill="#FFFFFF" d="M24.34,10.766c-0.375-0.137-0.583-0.109-0.783-0.494c0.116-0.248,0.34-1.375,0.3-1.828
		c-0.04-0.455-0.261-1.814-1.807-1.814c-0.51,0-1.638,0.247-3.034,2.021c-1.433,1.772-0.979,3.278-0.849,3.642
		c0.132,0.365,0.358,1.08,1.76,1.08s2.518-1.217,2.75-1.52c0.23-0.302,0.53-0.797,0.53-0.797s0.272,0.262,1.116,0.124
		C24.618,11.089,24.716,10.904,24.34,10.766z M22.093,10.752c-0.288,0.254-0.743,0.866-1.71,0.866c-0.966,0-1.057-0.866-0.948-1.409
		c0.109-0.542,0.552-1.471,1.046-2.048c0.49-0.577,1.044-0.79,1.455-0.79s0.613,0.157,0.613,0.157
		c-0.208,0.296-0.619,1.031-0.602,1.746c0.019,0.715,0.502,0.962,0.502,0.962S22.379,10.498,22.093,10.752z"/>
</g>
<g>
	<path fill="#FFFFFF" d="M32.32,3.26c0.729-1.415,1.134-2.081,1.196-2.178c0.061-0.097,0.203-0.412-0.102-0.598
		c-0.304-0.186-0.904-0.427-1.042-0.468c-0.137-0.041-0.377-0.028-0.563,0.316c-0.187,0.344-0.365,0.722-0.519,1.059
		c-0.155,0.337-0.742,1.773-0.951,2.446c-0.209,0.674-0.429,1.656-0.472,2.028c-0.043,0.37-0.158,1.065-0.144,1.119
		c-0.084-0.137-0.515-0.666-1.267-0.666c-0.473,0-1.439,0.158-2.125,0.66c-0.689,0.501-1.83,1.457-2.175,2.79
		c-0.347,1.333,0.066,2.274,0.43,2.611c0.366,0.337,0.992,0.798,2.069,0.51c1.074-0.289,1.679-0.688,1.84-0.832
		c0.161-0.145,0.684-0.749,0.812-1.031c-0.031,0.268,0.144,0.88,0.335,1.127c0.191,0.248,0.51,0.529,1.107,0.529
		c0.598,0,1.389-0.611,1.463-1.348c0.075-0.735-0.378-0.7-0.412-0.7c-0.034,0-0.295,0.089-0.322,0.343
		c-0.027,0.255,0.208,0.357,0.283,0.289c0.076-0.068-0.083,0.344-0.284,0.434c-0.201,0.089-0.528,0.206-0.708-0.158
		s-0.103-1.004-0.104-1.23c-0.002-0.228,0.07-1.738,0.273-2.729C31.143,6.594,31.584,4.676,32.32,3.26z M28.698,9.858
		c-0.423,0.633-0.96,1.513-1.984,1.513c-1.024,0-1.163-0.791-1.112-1.168c0.051-0.379,0.356-1.341,0.967-2.083
		c0.606-0.742,1.163-1.011,1.684-1.011c0.22,0,0.58,0.069,0.868,0.571C29.41,8.182,29.118,9.227,28.698,9.858z"/>
</g>
<g>
	<path fill="#FFFFFF" d="M22.505,14.958c-0.481-0.522-1.255-0.737-2.002-0.737s-2.058,0.412-3.093,1.072
		c-1.036,0.659-1.448,1.091-2.053,1.53c-0.605,0.439-1.48,1.154-2.809,1.75s-1.792-0.019-1.792-0.412
		c0-0.395,0.293-0.857,0.908-1.031c0.797-0.192,0.797-0.037,1.205-0.129c0.408-0.091,0.894-0.274,1.182-0.582
		c0.289-0.307,0.398-0.641,0.156-1.09c-0.243-0.448-1.055-0.485-1.214-0.485c-0.625,0-1.664,0.585-2.598,1.313
		c-0.935,0.728-1.382,1.505-1.382,1.972c0,0.468,0.145,0.729,0.296,0.907c0.151,0.179,0.563,0.488,0.804,0.598
		c0.24,0.11,0.825,0.275,1.168,0.275c0.344,0,0.997-0.165,1.712-0.57c0.715-0.406,2.034-1.142,2.096-1.21
		c-0.028,0.131-0.062,0.282-0.104,0.468c-0.041,0.185-0.117,0.536-0.199,0.886c-0.083,0.352-0.309,1.19-0.501,1.657
		c-0.193,0.468-0.577,1.168-0.577,1.168s-0.53-0.116-1.251-0.116c-0.722,0-2.055,0.412-2.646,0.783
		c-0.591,0.371-1.141,1.148-1.395,1.973s-0.234,1.602,0.055,2.234c0.289,0.631,1.388,0.927,2.055,0.782
		c0.667-0.144,1.1-0.363,1.602-0.886c0,0,0.193-0.197,0.334-0.349s1.072-1.246,1.42-1.873c0.348-0.628,0.912-1.641,1.356-3.029
		c0.445-1.389,0.632-1.998,0.706-2.296c0.073-0.298,0.201-1.091,0.224-1.471c0.023-0.381,0.027-0.67,0.027-0.67
		s0.481-0.366,0.839-0.563c0.357-0.196,0.871-0.468,1.154-0.604c0.285-0.138,0.761-0.376,1.229-0.376s0.765,0.151,0.999,0.312
		c0.234,0.16,0.449,0.514,0.812,0.674c0.361,0.161,0.989,0.183,1.383-0.238C23.004,16.172,22.986,15.48,22.505,14.958z
		 M11.875,25.401c-0.408,0.503-0.894,0.745-1.214,0.745c-0.682,0-0.802-0.682-0.802-1.328s0.477-1.195,1.04-1.535
		c0.563-0.339,1.452-0.477,1.833-0.477c0.38,0,0.688,0.092,0.688,0.092S12.282,24.896,11.875,25.401z"/>
</g>
<g>
	<path fill="#FFFFFF" d="M17.006,21.212c-0.08,0.229-0.33,0.958-0.472,1.356s-0.522,1.746-0.545,2.199s0.041,0.894,0.509,1.255
		c0.467,0.362,0.994,0.449,1.361,0.449c0.366,0,0.811-0.279,0.962-0.357s0.426-0.242,0.486-0.284
		c0.059-0.041,0.151-0.261,0.151-0.389c0-0.129-0.146-0.115-0.247-0.07c-0.101,0.047-0.202,0.134-0.385,0.234
		c-0.183,0.101-0.385,0.308-0.871,0.308s-0.664-0.381-0.697-0.683c-0.032-0.303,0.051-0.555,0.101-0.725
		c0.051-0.169,0.344-1.095,0.505-1.562c0.16-0.467,0.44-1.154,0.504-1.318c0.064-0.166,0.138-0.436-0.06-0.501
		c-0.197-0.063-0.632-0.187-0.774-0.22C17.391,20.872,17.133,20.851,17.006,21.212z"/>
	<path fill="#FFFFFF" d="M17.817,18.838c-0.058,0.168-0.343,1.05-0.38,1.188c-0.036,0.137-0.068,0.375,0.19,0.439
		s0.63,0.129,0.781,0.146c0.151,0.018,0.261-0.014,0.339-0.289c0.078-0.274,0.307-1.273,0.33-1.388
		c0.023-0.115,0.037-0.261-0.22-0.284c-0.257-0.022-0.563-0.063-0.683-0.074C18.056,18.568,17.885,18.643,17.817,18.838z"/>
</g>
<path fill="#FFFFFF" d="M19.188,23.838c-0.037,0.157-0.512,2.21-0.548,2.371s-0.029,0.291,0.235,0.276s1.05-0.059,1.234-0.068
	c0.184-0.01,0.261-0.064,0.295-0.44s0.099-0.924,0.176-1.247c0.077-0.323,0.245-0.982,0.553-1.448
	c0.309-0.467,0.971-1.206,1.458-1.233c0.488-0.027,0.538,0.249,0.456,0.519c-0.083,0.27-0.317,0.796-0.454,1.038
	c-0.136,0.242-0.42,0.882-0.518,1.192c-0.098,0.309-0.202,0.774-0.188,1.012c0.013,0.24,0.109,0.439,0.402,0.423
	c0.293-0.017,1-0.051,1.16-0.06s0.29-0.086,0.344-0.543c0.055-0.457,0.145-1.449,0.276-1.871s0.374-0.909,0.602-1.207
	c0.228-0.297,0.633-0.729,0.966-0.746c0.333-0.019,0.4,0.098,0.41,0.286c0.01,0.189-0.277,1.023-0.342,1.222
	c-0.063,0.198-0.529,1.257-0.502,1.74c0.026,0.481,0.316,0.67,0.744,0.727s0.865,0.021,1.338-0.169s1.103-0.45,1.524-0.867
	c0.421-0.418,0.631-0.769,0.494-0.988c-0.137-0.22-0.578,0.114-0.711,0.226c-0.133,0.113-0.278,0.271-0.377,0.376
	c-0.099,0.104-0.358,0.299-0.643,0.314c-0.283,0.016-0.523-0.086-0.545-0.478c-0.021-0.394,0.24-0.883,0.411-1.226
	c0.17-0.345,0.467-0.86,0.453-1.118c-0.015-0.26,0.078-0.843-0.915-1.097c-0.992-0.255-1.582,0.271-2.347,0.883
	c-0.06-0.267-0.584-0.911-1.405-0.865c-0.821,0.045-1.521,0.638-1.928,1.144c-0.015-0.263-0.241-0.749-0.475-1.011
	c-0.234-0.262-0.539-0.265-0.583-0.262c-0.045,0.001-0.172-0.051-0.243,0.208c-0.07,0.258-0.252,0.852-0.344,1.177
	C19.558,22.351,19.188,23.838,19.188,23.838z"/>
<g>
	<path fill="#FFFFFF" d="M33.74,23.294c-0.082-0.072,0.071-0.41-0.031-0.374c-0.103,0.035-0.477,0.394-0.584,0.515
		c-0.107,0.122-0.579,0.683-0.746,0.823c-0.167,0.139-0.61,0.494-1.192,0.527s-0.92-0.182-1.023-0.35
		c-0.076-0.124-0.056-0.626-0.034-0.666c0.134-0.008,0.59-0.165,0.971-0.292c0.382-0.126,0.548-0.183,0.898-0.345
		c0.35-0.162,0.787-0.377,1.14-0.822c0.354-0.443,0.258-1.143,0.163-1.411c-0.095-0.27-0.462-0.562-0.97-0.633
		c-0.508-0.07-1.617,0.094-2.173,0.49c-0.556,0.397-1.006,0.808-1.336,1.646c-0.331,0.838-0.33,0.935-0.33,0.935
		c-0.072,0.307-0.318,1.573,0.214,1.962s1.482,0.429,1.796,0.41c0.313-0.019,1.284-0.229,1.786-0.693s0.831-0.986,1.178-1.127
		C33.812,23.749,33.822,23.367,33.74,23.294z M30.801,21.674c0.377-0.637,0.813-0.687,1.022-0.699
		c0.209-0.012,0.474,0.247,0.42,0.704c-0.053,0.458-0.532,0.899-0.931,1.063c-0.4,0.162-1.032,0.358-1.032,0.358
		S30.424,22.31,30.801,21.674z"/>
</g>
<path fill="#FFFFFF" d="M34.272,22.624c-0.128,0.008-0.544,0.188-0.747,0.508c-0.201,0.319-0.085,1.061-0.044,1.292
	s0.153,0.826,0.789,1.166c0.635,0.34,1.45,0.545,2.483-0.231s1.106-1.81,0.969-2.443c-0.138-0.635-0.707-1.175-1.073-1.558
	c-0.366-0.383-0.427-0.88-0.444-1.173c-0.017-0.292,0.149-0.752,0.196-0.879c0.048-0.126,0.133-0.48-0.304-0.335
	c-0.437,0.145-1.378,0.529-1.535,0.594s-0.307,0.257-0.336,0.455c-0.03,0.199-0.062,0.527-0.053,0.678
	c0.009,0.151,0.114,0.705,0.408,1.092c0.293,0.387,0.611,0.502,0.812,0.706c0.2,0.204,0.499,0.443,0.544,1.23
	c0.046,0.786-0.452,1.082-0.785,1.101c-0.334,0.021-0.635,0.061-0.932-0.308c-0.24-0.339-0.213-0.585-0.213-0.585
	s0.072,0.216,0.411,0.197c0.339-0.02,0.691-0.279,0.666-0.714S34.771,22.596,34.272,22.624z"/>
</svg>
