<?xml version="1.0" encoding="utf-8"?>
<!DOCTYPE svg PUBLIC "-//W3C//DTD SVG 1.1//EN" "http://www.w3.org/Graphics/SVG/1.1/DTD/svg11.dtd">
<svg version="1.1" id="Layer_1" xmlns="http://www.w3.org/2000/svg" xmlns:xlink="http://www.w3.org/1999/xlink" x="0px" y="0px"
	 width="32.102px" height="24px" viewBox="-179.042 -13.875 32.102 24" enable-background="new -179.042 -13.875 32.102 24"
	 xml:space="preserve">
<path fill="#FFFFFF" d="M-150.287-9.247h-6.15v-1.282c0-2.464-0.882-3.346-3.347-3.346h-6.589c-2.464,0-3.347,0.881-3.347,3.346
	v1.282h-5.976c-2.464,0-3.346,0.881-3.346,3.347v12.68c0,2.462,0.882,3.346,3.346,3.346h25.409c2.466,0,3.347-0.882,3.347-3.346
	V-5.9C-146.94-8.366-147.821-9.247-150.287-9.247z M-156.156-7.369V8.247h-13.562V-7.369H-156.156z M-167.613-11.997h9.007v2.75
	h-9.007V-11.997z M-176.934,8.247V-7.369h5.109V8.247H-176.934z M-149.108,8.247h-4.941V-7.369h4.941V8.247z"/>
</svg>
