<?xml version="1.0" encoding="utf-8"?>
<!DOCTYPE svg PUBLIC "-//W3C//DTD SVG 1.1//EN" "http://www.w3.org/Graphics/SVG/1.1/DTD/svg11.dtd">
<svg version="1.1" id="Layer_1" xmlns="http://www.w3.org/2000/svg" xmlns:xlink="http://www.w3.org/1999/xlink" x="0px" y="0px"
	 width="22.034px" height="22px" viewBox="0 0 22.034 22" enable-background="new 0 0 22.034 22" xml:space="preserve">
<g>
	<path fill="#FFFFFF" d="M4.914,22H0.343V7.295h4.571V22z M2.628,5.257C1.177,5.257,0,4.081,0,2.629S1.177,0,2.628,0
		c1.452,0,2.629,1.177,2.629,2.629S4.081,5.257,2.628,5.257z M22.034,21.991h-4.572c0,0-0.036-7.319-0.036-8.455
		s-0.671-2.579-2.3-2.579s-2.186,0.829-2.493,1.55c-0.307,0.722-0.339,2.3-0.339,2.3V22H7.791V7.295h4.343v2.033
		c0.026,0,0.055,0,0.078,0c0.493-0.835,1.029-1.321,2.021-1.885c0.993-0.564,2.943-0.672,4.451-0.214
		c1.507,0.457,2.449,1.593,2.8,2.686c0.35,1.093,0.55,2.222,0.55,4.271S22.034,21.991,22.034,21.991z"/>
</g>
</svg>
