<?xml version="1.0" encoding="utf-8"?>
<!DOCTYPE svg PUBLIC "-//W3C//DTD SVG 1.1//EN" "http://www.w3.org/Graphics/SVG/1.1/DTD/svg11.dtd">
<svg version="1.1" id="Layer_1" xmlns="http://www.w3.org/2000/svg" xmlns:xlink="http://www.w3.org/1999/xlink" x="0px" y="0px"
	 width="52px" height="52px" viewBox="0 0 52 52" enable-background="new 0 0 52 52" xml:space="preserve">
<g>
	<path fill="#FFFFFF" d="M37.693,14.307H14.307v23.387h23.387V14.307z M36.854,19.863L26.93,31.979l-2.602,3.176
		c-0.07,0.085-0.173,0.136-0.283,0.144c-0.008,0-0.017,0-0.024,0c-0.102,0-0.199-0.039-0.275-0.109L20.87,32.44l-5.692-5.438
		c-0.078-0.073-0.121-0.177-0.122-0.283c0-0.107,0.042-0.212,0.119-0.287l2.923-2.87c0.078-0.076,0.178-0.114,0.277-0.114
		c0.099,0,0.197,0.037,0.275,0.11l5.062,4.836l9.461-11.547c0.066-0.084,0.162-0.134,0.267-0.145
		c0.014-0.001,0.026-0.002,0.039-0.002c0.092,0,0.182,0.031,0.251,0.09l3.069,2.514c0.082,0.066,0.133,0.163,0.145,0.268
		C36.953,19.678,36.922,19.781,36.854,19.863z"/>
	<path fill="#FFFFFF" d="M26,0C11.641,0,0,11.641,0,26s11.641,26,26,26s26-11.641,26-26S40.359,0,26,0z M40.828,40.828H11.172
		V11.172h29.656V40.828z"/>
</g>
</svg>
