<?xml version="1.0" encoding="utf-8"?>
<!DOCTYPE svg PUBLIC "-//W3C//DTD SVG 1.1//EN" "http://www.w3.org/Graphics/SVG/1.1/DTD/svg11.dtd">
<svg version="1.1" id="Layer_1" xmlns="http://www.w3.org/2000/svg" xmlns:xlink="http://www.w3.org/1999/xlink" x="0px" y="0px"
	 width="51.999px" height="52px" viewBox="0 0 51.999 52" enable-background="new 0 0 51.999 52" xml:space="preserve">
<g>
	<path fill="#FFFFFF" d="M26,0C11.64,0,0,11.64,0,25.997c0,14.36,11.64,26,26,26.003c14.355,0,25.999-11.643,25.999-26.003
		C51.999,11.64,40.355,0,26,0z M44.284,37.889c-2.496,0.814-8.454,0.181-11.725-0.943c-1.198,0.317-2.46,0.545-3.762,0.689
		c-0.01,0-0.018,0-0.026,0c-0.156,0.021-0.31,0.031-0.469,0.052c-0.027,0.003-0.055,0.003-0.08,0.006
		c-0.14,0.013-0.28,0.025-0.422,0.031c-0.038,0.008-0.072,0.01-0.11,0.016c-0.131,0.005-0.264,0.016-0.396,0.023
		c-0.042,0-0.086,0.005-0.128,0.008c-0.128,0.003-0.258,0.011-0.389,0.016c-0.044,0-0.086,0.006-0.128,0.006
		c-0.14,0.008-0.276,0.008-0.413,0.01c-0.037,0-0.072,0.003-0.11,0.003c-0.172,0.005-0.343,0.005-0.519,0.005h-0.001h-0.001
		c-0.173,0-0.344,0-0.518-0.005c-0.036,0-0.072-0.003-0.107-0.003c-0.139-0.002-0.278-0.002-0.411-0.01
		c-0.044,0-0.089-0.006-0.132-0.006c-0.128-0.005-0.259-0.013-0.388-0.016c-0.042-0.003-0.085-0.008-0.127-0.008
		c-0.133-0.008-0.266-0.019-0.398-0.023c-0.037-0.006-0.073-0.008-0.107-0.016c-0.142-0.006-0.281-0.019-0.421-0.031
		c-0.026-0.003-0.054-0.003-0.082-0.006c-0.156-0.021-0.312-0.031-0.47-0.052c-0.008,0-0.015,0-0.024,0
		c-8.818-0.979-15.531-5.942-15.531-11.92c0-5.989,6.726-10.956,15.559-11.923c0.009-0.003,0.021-0.003,0.03-0.003
		c0.153-0.021,0.307-0.034,0.46-0.05c0.026,0,0.051-0.002,0.079-0.002c0.137-0.019,0.276-0.026,0.416-0.037
		c0.036-0.005,0.071-0.005,0.106-0.01c0.132-0.008,0.265-0.019,0.399-0.024c0.041-0.002,0.077-0.002,0.118-0.008
		c0.131-0.008,0.264-0.01,0.394-0.021c0.042,0,0.083,0,0.125-0.003c0.138-0.005,0.275-0.008,0.413-0.011c0.035,0,0.067,0,0.102,0
		c0.173-0.002,0.343-0.002,0.516-0.002h0.001h0.001c0.174,0,0.346,0,0.516,0.002c0.034,0,0.071,0,0.105,0
		c0.136,0.003,0.275,0.006,0.412,0.011c0.043,0.003,0.083,0.003,0.125,0.003c0.131,0.011,0.261,0.013,0.393,0.021
		c0.041,0.006,0.08,0.006,0.119,0.008c0.133,0.006,0.267,0.017,0.398,0.024c0.037,0.005,0.071,0.005,0.106,0.01
		c0.14,0.011,0.28,0.019,0.417,0.037c0.026,0,0.053,0.002,0.08,0.002c0.153,0.016,0.306,0.029,0.457,0.05
		c0.012,0,0.022,0,0.033,0.003c8.833,0.967,15.556,5.937,15.556,11.923c0,2.794-1.466,5.368-3.929,7.413
		c0.322,1.872,1.474,4.507,3.805,4.674C44.346,37.81,44.418,37.847,44.284,37.889z"/>
</g>
</svg>
