<?xml version="1.0" encoding="utf-8"?>
<!DOCTYPE svg PUBLIC "-//W3C//DTD SVG 1.1//EN" "http://www.w3.org/Graphics/SVG/1.1/DTD/svg11.dtd">
<svg version="1.1" id="Layer_1" xmlns="http://www.w3.org/2000/svg" xmlns:xlink="http://www.w3.org/1999/xlink" x="0px" y="0px"
	 width="52px" height="52px" viewBox="0 0 52 52" enable-background="new 0 0 52 52" xml:space="preserve">
<g>
	<path fill="none" d="M40.352,13.899H11.668c-2.782,0-3.778,0.995-3.778,3.777v14.314c0,2.781,0.996,3.777,3.778,3.777h28.683
		c2.783,0,3.778-0.996,3.778-3.777V17.676C44.129,14.894,43.134,13.899,40.352,13.899z"/>
	<path fill="none" d="M32.933,39.675c-0.778,0-1.409-0.63-1.409-1.409V37.47H20.401v0.796c0,0.778-0.631,1.409-1.409,1.409
		c0,0-0.24,0.036-0.24,0.305c0,0.269,0.24,0.315,0.24,0.315h13.94c0,0,0.288-0.026,0.288-0.315
		C33.221,39.691,32.933,39.675,32.933,39.675z"/>
	<path fill="#106232" d="M10.269,33.648h1.806V20.232h14.602v13.416h15.004V18.333H10.269V33.648z M35.895,27.229l2.057-1.066
		l-2.057-1.065v-0.719l2.882,1.464v0.641l-2.882,1.467V27.229z M34.875,23.92h0.562l-1.907,5.12h-0.56L34.875,23.92z M29.632,25.842
		l2.882-1.463v0.718l-2.053,1.065l2.053,1.066v0.722l-2.882-1.467V25.842z"/>
	<path fill="#106232" d="M41.681,16.019H10.269v1.958h31.412V16.019z M11.244,17.383c-0.229,0-0.416-0.186-0.416-0.416
		c0-0.229,0.186-0.415,0.416-0.415s0.415,0.186,0.415,0.415C11.659,17.197,11.473,17.383,11.244,17.383z M12.49,17.383
		c-0.229,0-0.416-0.186-0.416-0.416c0-0.229,0.186-0.415,0.416-0.415s0.415,0.186,0.415,0.415
		C12.905,17.197,12.72,17.383,12.49,17.383z M13.737,17.383c-0.229,0-0.416-0.186-0.416-0.416c0-0.229,0.186-0.415,0.416-0.415
		s0.415,0.186,0.415,0.415C14.152,17.197,13.966,17.383,13.737,17.383z"/>
	<path fill="#106232" d="M26,0C11.641,0,0,11.641,0,26s11.641,26,26,26s26-11.641,26-26S40.359,0,26,0z M32.933,40.294h-13.94
		c0,0-0.24-0.046-0.24-0.315c0-0.269,0.24-0.305,0.24-0.305c0.778,0,1.409-0.63,1.409-1.409V37.47h11.123v0.796
		c0,0.778,0.631,1.409,1.409,1.409c0,0,0.288,0.017,0.288,0.305C33.221,40.268,32.933,40.294,32.933,40.294z M44.129,31.991
		c0,2.781-0.995,3.777-3.778,3.777H11.668c-2.782,0-3.778-0.996-3.778-3.777V17.676c0-2.782,0.996-3.777,3.778-3.777h28.683
		c2.783,0,3.778,0.995,3.778,3.777V31.991z"/>
</g>
</svg>
