<?xml version="1.0" encoding="utf-8"?>
<!DOCTYPE svg PUBLIC "-//W3C//DTD SVG 1.1//EN" "http://www.w3.org/Graphics/SVG/1.1/DTD/svg11.dtd">
<svg version="1.1" id="Layer_1" xmlns="http://www.w3.org/2000/svg" xmlns:xlink="http://www.w3.org/1999/xlink" x="0px" y="0px"
	 width="30px" height="21.917px" viewBox="0 0 30 21.917" enable-background="new 0 0 30 21.917" xml:space="preserve">
<g>
	<g>
		<path fill="#FFFFFF" d="M7.155,10.959c0,3.474,4.358,6.291,9.734,6.291c3.018,0,5.711-0.889,7.496-2.282l-3.035-1.641
			c-1.059,0.833-2.664,1.365-4.461,1.365c-3.19,0-5.775-1.672-5.775-3.733c0-2.062,2.585-3.733,5.775-3.733
			c1.75,0,3.316,0.503,4.375,1.297L24.3,6.881c-1.786-1.354-4.441-2.214-7.411-2.214C11.513,4.667,7.155,7.484,7.155,10.959"/>
		<path fill="#FFFFFF" d="M16.889,4.785c-5.303,0-9.616,2.769-9.616,6.174c0,3.404,4.313,6.173,9.616,6.173
			c2.804,0,5.445-0.781,7.28-2.147l-2.807-1.518c-1.122,0.854-2.747,1.342-4.473,1.342c-3.25,0-5.893-1.728-5.893-3.851
			s2.644-3.851,5.893-3.851c1.675,0,3.269,0.464,4.385,1.275l2.807-1.518C22.251,5.542,19.644,4.785,16.889,4.785 M16.889,17.368
			c-5.432,0-9.852-2.875-9.852-6.409c0-3.535,4.42-6.41,9.852-6.41c2.879,0,5.607,0.815,7.482,2.239l0.146,0.11l-3.263,1.764
			l-0.061-0.045c-1.079-0.809-2.648-1.274-4.304-1.274c-3.12,0-5.658,1.622-5.658,3.615c0,1.994,2.538,3.615,5.658,3.615
			c1.706,0,3.306-0.488,4.389-1.34l0.061-0.047L24.6,14.95l-0.142,0.111C22.578,16.527,19.82,17.368,16.889,17.368"/>
		<path fill="#FFFFFF" d="M16.889,18.972c-6.847,0-12.397-3.588-12.397-8.013c0-4.426,5.55-8.014,12.397-8.014
			c3.789,0,7.179,1.1,9.453,2.831l3.355-1.814c-3.077-2.351-7.672-3.844-12.809-3.844c-9.262,0-16.771,4.854-16.771,10.841
			c0,5.986,7.509,10.84,16.771,10.84c5.186,0,9.82-1.522,12.896-3.911l-3.358-1.816C24.153,17.842,20.727,18.972,16.889,18.972"/>
		<path fill="#FFFFFF" d="M16.889,0.236c-9.183,0-16.653,4.811-16.653,10.723c0,5.913,7.471,10.723,16.653,10.723
			c4.895,0,9.504-1.375,12.68-3.776l-3.131-1.693c-2.386,1.83-5.861,2.878-9.549,2.878c-6.901,0-12.515-3.647-12.515-8.131
			c0-4.483,5.614-8.131,12.515-8.131c3.638,0,7.083,1.023,9.464,2.81l3.127-1.691C26.308,1.585,21.731,0.236,16.889,0.236
			 M16.889,21.917C7.576,21.917,0,17.001,0,10.958S7.576,0,16.889,0c4.968,0,9.662,1.41,12.88,3.868l0.145,0.111l-3.583,1.938
			l-0.061-0.046c-2.343-1.784-5.762-2.808-9.381-2.808c-6.771,0-12.28,3.542-12.28,7.896s5.508,7.896,12.28,7.896
			c3.668,0,7.119-1.048,9.465-2.875l0.061-0.047L30,17.871l-0.143,0.111C26.637,20.482,21.91,21.917,16.889,21.917"/>
	</g>
	<rect x="15.588" y="9.369" fill="#FFFFFF" width="2.622" height="3.179"/>
	<path fill="#FFFFFF" d="M15.672,12.463h2.452V9.454h-2.452V12.463z M18.294,12.633h-2.792V9.285h2.792V12.633z"/>
</g>
</svg>
