<?xml version="1.0" encoding="utf-8"?>
<!DOCTYPE svg PUBLIC "-//W3C//DTD SVG 1.1//EN" "http://www.w3.org/Graphics/SVG/1.1/DTD/svg11.dtd">
<svg version="1.1" id="Layer_1" xmlns="http://www.w3.org/2000/svg" xmlns:xlink="http://www.w3.org/1999/xlink" x="0px" y="0px"
	 width="121.321px" height="51px" viewBox="0 0 121.321 51" enable-background="new 0 0 121.321 51" xml:space="preserve">
<g>
	<g>
		<g>
			<g>
				<path fill="#FFFFFF" d="M39.261,50.827c-21.553,0-39.087-11.362-39.087-25.327c0-13.965,17.535-25.327,39.087-25.327
					c11.505,0,22.376,3.264,29.826,8.956L69.3,9.292l-8.121,4.391l-0.089-0.068C55.636,9.462,47.679,7.08,39.261,7.08
					c-15.766,0-28.592,8.263-28.592,18.42c0,10.157,12.826,18.421,28.592,18.421c8.534,0,16.561-2.441,22.024-6.693l0.089-0.07
					l8.125,4.394l-0.209,0.164C61.835,47.505,50.89,50.827,39.261,50.827L39.261,50.827z"/>
			</g>
			<g>
				<path fill="#FFFFFF" d="M39.261,0.347c11.917,0,22.581,3.465,29.72,8.92l-7.786,4.21c-5.278-4.018-13.143-6.57-21.934-6.57
					c-15.886,0-28.765,8.325-28.765,18.593c0,10.268,12.879,18.594,28.765,18.594c8.906,0,16.854-2.622,22.131-6.729l7.792,4.214
					c-7.139,5.545-17.891,9.074-29.923,9.074C17.77,50.652,0.347,39.391,0.347,25.5C0.347,11.608,17.77,0.347,39.261,0.347
					 M39.261,0C17.613,0,0,11.439,0,25.5C0,39.561,17.613,51,39.261,51c11.667,0,22.651-3.334,30.136-9.147l0.42-0.327l-0.468-0.253
					l-7.792-4.214l-0.199-0.107l-0.179,0.139c-5.434,4.229-13.422,6.656-21.918,6.656c-15.67,0-28.418-8.185-28.418-18.246
					c0-10.061,12.749-18.246,28.418-18.246c8.381,0,16.299,2.369,21.724,6.499l0.178,0.136l0.197-0.107l7.787-4.21l0.472-0.255
					l-0.427-0.326C61.713,3.277,50.804,0,39.261,0L39.261,0z"/>
			</g>
		</g>
		<g>
			<g>
				<rect x="36.068" y="21.639" fill="#FFFFFF" width="6.431" height="7.722"/>
			</g>
			<g>
				<path fill="#FFFFFF" d="M42.325,21.812v7.376h-6.083v-7.376H42.325 M42.672,21.465h-0.347h-6.083h-0.347v0.347v7.376v0.346
					h0.347h6.083h0.347v-0.346v-7.376V21.465L42.672,21.465z"/>
			</g>
		</g>
		<g>
			<g>
				<path fill="#FFFFFF" d="M39.261,40.272c-12.55,0-22.759-6.627-22.759-14.771c0-8.146,10.209-14.772,22.759-14.772
					c6.661,0,12.966,1.885,17.3,5.173l0.215,0.163l-7.378,3.99l-0.089-0.067c-2.521-1.891-6.184-2.976-10.047-2.976
					c-7.293,0-13.227,3.808-13.227,8.488c0,4.681,5.934,8.488,13.227,8.488c3.981,0,7.715-1.14,10.245-3.129l0.09-0.071l7.374,3.989
					l-0.209,0.163C52.417,38.329,46.039,40.272,39.261,40.272L39.261,40.272z"/>
			</g>
			<g>
				<path fill="#FFFFFF" d="M39.261,10.901c6.889,0,13.052,1.996,17.195,5.139l-7.043,3.809c-2.458-1.842-6.093-3.01-10.152-3.01
					c-7.401,0-13.4,3.878-13.4,8.661c0,4.782,6,8.662,13.4,8.662c4.172,0,7.895-1.235,10.353-3.167l7.041,3.808
					c-4.143,3.232-10.391,5.295-17.393,5.295c-12.474,0-22.586-6.535-22.586-14.597C16.675,17.438,26.788,10.901,39.261,10.901
					 M39.261,10.555c-12.645,0-22.933,6.705-22.933,14.946c0,8.241,10.288,14.943,22.933,14.943c6.815,0,13.233-1.955,17.607-5.367
					l0.418-0.327l-0.467-0.252l-7.041-3.808l-0.201-0.108l-0.179,0.141c-2.5,1.965-6.195,3.092-10.138,3.092
					c-7.198,0-13.053-3.729-13.053-8.314c0-4.584,5.855-8.314,13.053-8.314c3.827,0,7.451,1.071,9.943,2.94l0.178,0.134l0.196-0.106
					l7.043-3.809l0.474-0.257l-0.429-0.325C52.303,12.453,45.959,10.555,39.261,10.555L39.261,10.555z"/>
			</g>
		</g>
	</g>
	<g>
		<g>
			<path fill="#FFFFFF" d="M61.125,27.595l0.827-0.398c0.583,0.858,1.254,1.287,2.016,1.287c0.327,0,0.633-0.061,0.919-0.183
				c0.285-0.122,0.504-0.285,0.655-0.49c0.149-0.206,0.224-0.422,0.224-0.651c0-0.262-0.111-0.518-0.331-0.769
				c-0.304-0.346-0.859-0.762-1.666-1.25c-0.812-0.491-1.316-0.846-1.515-1.065c-0.343-0.367-0.516-0.764-0.516-1.191
				c0-0.338,0.102-0.647,0.304-0.927c0.204-0.278,0.49-0.498,0.857-0.659c0.369-0.16,0.769-0.241,1.201-0.241
				c0.459,0,0.888,0.091,1.287,0.272s0.821,0.516,1.267,1.002l-0.795,0.482c-0.364-0.389-0.677-0.645-0.934-0.769
				c-0.258-0.124-0.538-0.186-0.841-0.186c-0.392,0-0.712,0.096-0.961,0.286c-0.248,0.191-0.373,0.426-0.373,0.705
				c0,0.169,0.043,0.333,0.132,0.493c0.088,0.159,0.249,0.332,0.482,0.519c0.128,0.099,0.547,0.358,1.256,0.779
				c0.842,0.498,1.418,0.941,1.731,1.331c0.312,0.388,0.468,0.779,0.468,1.171c0,0.564-0.267,1.056-0.803,1.473
				c-0.537,0.417-1.188,0.626-1.956,0.626c-0.591,0-1.127-0.127-1.608-0.38C61.973,28.611,61.53,28.188,61.125,27.595z"/>
		</g>
		<g>
			<path fill="#FFFFFF" d="M69.272,22.021v-0.767h5.328v0.767h-2.169v7.027h-0.99v-7.027H69.272z"/>
		</g>
		<g>
			<path fill="#FFFFFF" d="M77.409,21.254h0.977v4.703c0,0.557,0.013,0.905,0.04,1.043c0.048,0.307,0.161,0.564,0.337,0.77
				c0.177,0.207,0.449,0.38,0.815,0.52c0.367,0.139,0.735,0.209,1.105,0.209c0.323,0,0.632-0.055,0.927-0.164
				c0.296-0.109,0.544-0.261,0.742-0.456c0.199-0.194,0.345-0.429,0.437-0.705c0.067-0.197,0.1-0.603,0.1-1.217v-4.703h0.976v4.704
				c0,0.696-0.085,1.259-0.255,1.688c-0.17,0.429-0.509,0.803-1.021,1.121c-0.51,0.318-1.128,0.477-1.852,0.477
				c-0.788,0-1.461-0.151-2.022-0.45c-0.561-0.3-0.938-0.698-1.127-1.192c-0.12-0.304-0.179-0.852-0.179-1.643V21.254z"/>
		</g>
		<g>
			<path fill="#FFFFFF" d="M87.611,29.047v-7.793h2.02c1.457,0,2.515,0.094,3.172,0.281c0.945,0.265,1.683,0.724,2.216,1.377
				c0.531,0.653,0.798,1.432,0.798,2.336c0,0.78-0.212,1.468-0.633,2.061c-0.422,0.595-0.969,1.032-1.643,1.314
				c-0.673,0.283-1.617,0.424-2.83,0.424H87.611z M88.543,28.31h1.126c1.348,0,2.282-0.067,2.804-0.201
				c0.732-0.19,1.31-0.533,1.729-1.029c0.42-0.495,0.63-1.101,0.63-1.817c0-0.751-0.228-1.393-0.683-1.926
				c-0.455-0.532-1.089-0.897-1.901-1.095c-0.61-0.148-1.616-0.222-3.016-0.222h-0.689V28.31z"/>
		</g>
		<g>
			<path fill="#FFFFFF" d="M98.923,21.254h0.976v7.793h-0.976V21.254z"/>
		</g>
		<g>
			<path fill="#FFFFFF" d="M108.127,21.059c1.476,0,2.711,0.394,3.705,1.181c0.994,0.788,1.491,1.757,1.491,2.908
				c0,1.141-0.496,2.108-1.488,2.902c-0.991,0.795-2.201,1.193-3.628,1.193c-1.445,0-2.665-0.396-3.659-1.188
				c-0.994-0.79-1.491-1.748-1.491-2.871c0-0.749,0.226-1.442,0.679-2.082c0.453-0.639,1.071-1.14,1.853-1.501
				C106.371,21.24,107.216,21.059,108.127,21.059z M108.17,21.818c-0.72,0-1.402,0.15-2.047,0.451
				c-0.645,0.3-1.148,0.705-1.511,1.213c-0.362,0.509-0.543,1.076-0.543,1.701c0,0.926,0.4,1.707,1.202,2.345
				c0.802,0.637,1.769,0.957,2.899,0.957c0.756,0,1.454-0.146,2.097-0.44c0.643-0.293,1.145-0.694,1.503-1.203
				c0.36-0.509,0.541-1.074,0.541-1.695c0-0.618-0.18-1.178-0.541-1.677c-0.359-0.5-0.866-0.9-1.52-1.2
				C109.597,21.968,108.903,21.818,108.17,21.818z"/>
		</g>
		<g>
			<path fill="#FFFFFF" d="M115.625,27.595l0.828-0.398c0.581,0.858,1.253,1.287,2.015,1.287c0.327,0,0.632-0.061,0.919-0.183
				c0.286-0.122,0.504-0.285,0.654-0.49c0.15-0.206,0.225-0.422,0.225-0.651c0-0.262-0.11-0.518-0.331-0.769
				c-0.304-0.346-0.86-0.762-1.667-1.25c-0.811-0.491-1.316-0.846-1.514-1.065c-0.344-0.367-0.516-0.764-0.516-1.191
				c0-0.338,0.102-0.647,0.304-0.927c0.203-0.278,0.488-0.498,0.857-0.659c0.368-0.16,0.769-0.241,1.201-0.241
				c0.458,0,0.888,0.091,1.287,0.272c0.398,0.182,0.821,0.516,1.267,1.002l-0.795,0.482c-0.365-0.389-0.676-0.645-0.934-0.769
				c-0.257-0.124-0.539-0.186-0.842-0.186c-0.392,0-0.711,0.096-0.96,0.286c-0.25,0.191-0.373,0.426-0.373,0.705
				c0,0.169,0.044,0.333,0.132,0.493c0.088,0.159,0.248,0.332,0.482,0.519c0.127,0.099,0.545,0.358,1.255,0.779
				c0.841,0.498,1.419,0.941,1.731,1.331c0.313,0.388,0.469,0.779,0.469,1.171c0,0.564-0.269,1.056-0.805,1.473
				c-0.536,0.417-1.187,0.626-1.954,0.626c-0.591,0-1.128-0.127-1.609-0.38C116.473,28.611,116.03,28.188,115.625,27.595z"/>
		</g>
	</g>
</g>
</svg>
