<?xml version="1.0" encoding="utf-8"?>
<!DOCTYPE svg PUBLIC "-//W3C//DTD SVG 1.1//EN" "http://www.w3.org/Graphics/SVG/1.1/DTD/svg11.dtd">
<svg version="1.1" id="Layer_1" xmlns="http://www.w3.org/2000/svg" xmlns:xlink="http://www.w3.org/1999/xlink" x="0px" y="0px"
	 width="30.281px" height="51.477px" viewBox="0 0 30.281 51.477" enable-background="new 0 0 30.281 51.477" xml:space="preserve">
<path fill="#0C8241" d="M15.141,0v7.982v14.314v29.18c0,0,15.141-27.976,15.141-36.337S23.502,0,15.141,0z"/>
<path fill="#076E38" d="M0,15.14c0,8.361,15.141,36.337,15.141,36.337v-29.18V7.982V0C6.779,0,0,6.778,0,15.14z"/>
<path fill="#FFFFFF" d="M16.498,8.994c2.08,0,3.942,0.603,5.192,1.552l-2.126,1.149c-0.742-0.556-1.84-0.909-3.066-0.909
	c-2.234,0-4.045,1.171-4.045,2.615s1.811,2.616,4.045,2.616c1.261,0,2.386-0.373,3.126-0.957l2.126,1.149
	c-1.251,0.978-3.138,1.602-5.252,1.602c-3.767,0-6.82-1.976-6.82-4.41C9.678,10.968,12.731,8.994,16.498,8.994z M16.498,19.018
	c-4.797,0-8.686-2.515-8.686-5.616c0-3.1,3.889-5.614,8.686-5.614c2.655,0,5.03,0.771,6.624,1.985l2.351-1.273
	c-2.155-1.646-5.375-2.692-8.975-2.692c-6.488,0-11.75,3.4-11.75,7.595c0,4.195,5.262,7.597,11.75,7.597
	c3.634,0,6.88-1.067,9.036-2.741l-2.353-1.271C21.588,18.225,19.188,19.018,16.498,19.018z M17.424,12.29h-1.837v2.227h1.837V12.29z
	"/>
</svg>
